<svg id="Capa_2" data-name="Capa 2" xmlns="http://www.w3.org/2000/svg" viewBox="0 0 324.44 377.42"><defs><style>.cls-1{fill:#58554a;}.cls-1,.cls-2,.cls-21,.cls-7,.cls-8,.cls-9{stroke:#111212;}.cls-1,.cls-10,.cls-11,.cls-12,.cls-13,.cls-14,.cls-16,.cls-18,.cls-19,.cls-2,.cls-21,.cls-23,.cls-24,.cls-3,.cls-4,.cls-5,.cls-6,.cls-7,.cls-8,.cls-9{stroke-miterlimit:10;}.cls-2{fill:#fff;}.cls-3{fill:#563b38;}.cls-10,.cls-11,.cls-12,.cls-13,.cls-14,.cls-16,.cls-18,.cls-19,.cls-23,.cls-24,.cls-3,.cls-4,.cls-5,.cls-6{stroke:#1d1d1b;}.cls-20,.cls-4,.cls-5{fill:#d8644b;}.cls-10,.cls-12,.cls-16,.cls-18,.cls-19,.cls-21,.cls-4,.cls-8,.cls-9{stroke-width:0.5px;}.cls-6{fill:#dd614f;}.cls-7,.cls-9{fill:#797572;}.cls-7{stroke-width:0.75px;}.cls-8{fill:#313535;}.cls-10{fill:#cdc3b2;}.cls-11{fill:#702722;}.cls-12,.cls-21{fill:none;}.cls-13,.cls-24{fill:#d16650;}.cls-14{fill:#d46b55;}.cls-15{fill:#d3634a;}.cls-16{fill:#f0c6b7;}.cls-17{fill:#edeeeb;}.cls-18{fill:#f8beac;}.cls-19{fill:#604c3b;}.cls-22{fill:#1d1d1b;}.cls-23,.cls-24{font-size:18.29px;font-family:BubbleGum;}.cls-23{fill:#46af62;}</style></defs><path class="cls-1" d="M421.6,273.17s-1-22-6.82-25.77-19.45,27.53-16.68,29.3,11.88,2.28,20.72,1c0,0,15.45,11.86,13.89,36.28-.56,8.86,3.74,7.8,5.06,6.08C438,320.39,436.27,292.14,421.6,273.17Zm-17.94,0c-.29-1.4,4.9-12.74,7.4-18.11a1.87,1.87,0,0,1,3.45.12c2.29,5.93,3.25,18.68,3.25,18.68S404,275,403.66,273.17Z" transform="translate(-133.6 -111.61)"/><path class="cls-2" d="M166.64,169.71s38-18.45,44.53-47.75c0,0,11.37,16.67,54.57,10.86,0,0,20.21-4.55,28-20,0,0,7.07,19.46,41.94,18.45S369.32,121,369.32,121s5.81,24.76,32.84,25c0,0,12.88,2.52,15.66-3.54,0,0,1,28.8,16.42,43.71,0,0-12.76,1.76-16.48,19.7s1.83,25.52,1.83,25.52-18.7,6.43-24.76,24.69c0,0-16.67-.65-22,5.14s-25.8,4.35-25.8,4.35L243.9,258.06l-48.08-39s-1.2-17.75-26-13.7c0,0,14-6.07,11.77-18.7S166.64,169.71,166.64,169.71Z" transform="translate(-133.6 -111.61)"/><path class="cls-3" d="M422.58,389.75s9.14,2,7.18-22.07a74.19,74.19,0,0,0,6.95-28.38s6.37,3.21,4.35,43.63l-2,15.66s-6.66,8.17-20.38,7.75S422.58,389.75,422.58,389.75Z" transform="translate(-133.6 -111.61)"/><path class="cls-4" d="M241.89,418.55s-26,.16-25.23,12.46,37.84,12.3,46.59-1.29C263.25,429.72,253.31,417.27,241.89,418.55Z" transform="translate(-133.6 -111.61)"/><path class="cls-5" d="M275.64,256.51s54.94-4.26,77.57,12.79c0,0,52.25,11.19,78.1,50.63h6.47s0,32.51-7.54,46.9-54.95,50.63-54.95,50.63-11.85,7.46-18.58,9.6-60.06,13.85-93.46,2.66-63.56-47.43-59.79-114S275.64,256.51,275.64,256.51Z" transform="translate(-133.6 -111.61)"/><path class="cls-6" d="M308.77,407.34s-2.49,17.91,17.51,33.33a10.74,10.74,0,0,1,4.3,8.49v.56a10.52,10.52,0,0,1-2.65,7l-9.81,11.1a10.67,10.67,0,0,1-3.8,2.74c-4.48,1.9-14.44,6.76-14.44,12.34,0,7.2,19,6.8,27.88,2.8s21.81-20,21.81-20a168.26,168.26,0,0,1,16.57-17.76s7-5.25-5.34-19.32a10.58,10.58,0,0,1-2.56-5.58c-1-7.56,1.76-26.24-.18-33.28" transform="translate(-133.6 -111.61)"/><path class="cls-7" d="M228.78,319.29s-53.8-10.32-61-28.7c-6.55-16.72-12-45.71,10.33-65.49a30.72,30.72,0,0,1,21.91-8,25.06,25.06,0,0,1,13,4.36l66.32,36.76-40.55,56.65Z" transform="translate(-133.6 -111.61)"/><path class="cls-8" d="M232.14,316.74s-62.66-5.56-65.43-46.49c-2.28-33.44,17-45.46,24.19-48.74a18,18,0,0,1,4.29-1.34l1.9-.35a18.49,18.49,0,0,1,11.61,1.66c14.87,7.45,55.3,28.12,68.41,39.17C277.11,260.65,241,311.43,232.14,316.74Z" transform="translate(-133.6 -111.61)"/><path class="cls-9" d="M236.43,313.71c-.33-3.55-75.17-2.76-64.1-61.44A37,37,0,0,1,184.8,230.4a31.71,31.71,0,0,1,12.92-6.48c7.14-1.68,9.34.39,15.64,4.14l62.28,34.36Z" transform="translate(-133.6 -111.61)"/><path class="cls-10" d="M267.49,263.65s-54.3-33.76-61.12-34.28S174.28,238.2,176.81,267s27.54,33.35,56.84,41.94Z" transform="translate(-133.6 -111.61)"/><path class="cls-5" d="M381.6,380.78s-11.05,17.73-6.55,35.75a7.22,7.22,0,0,0,.85,2,25.82,25.82,0,0,0,12.86,10.39c7.15,2.65,6.83,14.42,6.17,20.43a7.08,7.08,0,0,1-3,5c-3.17,2.23-7.38,7.13-.31,15,8.34,9.25,20-5.51,23.79-10.92a6.86,6.86,0,0,0,1.26-4V435.5a6.66,6.66,0,0,1,.3-2c.81-2.63,3.23-9.66,6.53-12.52a7,7,0,0,0,2.59-6.85,3.21,3.21,0,0,0-1.95-2.57c-3.23-1-5.45-4.39-5.45-5.19,0,0,3-17.08,6.36-22.4a8.38,8.38,0,0,0,1.2-4.68c-.11-1.58-.33-3.16-.7-5.9" transform="translate(-133.6 -111.61)"/><path class="cls-11" d="M263.25,322.34s12.81,15.5,8.86,40.05A16.72,16.72,0,0,1,268,371a63.75,63.75,0,0,1-12.38,10.53,15.69,15.69,0,0,1-7.79,2.51c-5.52.26-15.06.44-17.6-1.24-3.63-2.39-19-13.59-16.57-53.76l20.81-13.32Z" transform="translate(-133.6 -111.61)"/><path class="cls-12" d="M216.11,333.93s10.52,17.42,11.25,20.95,0,16.59,3.91,20.05,4.44-8,4.44-8l-1.3-12.18" transform="translate(-133.6 -111.61)"/><path class="cls-13" d="M280.45,256.25s-57.2,26.25-51.19,67.11c0,0,8,26.27,39.37-4" transform="translate(-133.6 -111.61)"/><path class="cls-14" d="M203.46,315.67s-.54,13.72,11.18,13.32,12.52-6.79,12.72-9.39" transform="translate(-133.6 -111.61)"/><path class="cls-15" d="M228.94,379.69c3.18-6.86,16.27-33.26,29-32.32a1.26,1.26,0,0,1,.33.05c.72.2,3.6,1.11,4.93,3.25.28.45,3,2.86,3.59,2.82,2.41-.13,4,39.43-36.8,28.23A1.49,1.49,0,0,1,228.94,379.69Z" transform="translate(-133.6 -111.61)"/><path class="cls-16" d="M220.41,328.12s3.72,7.27,5.94,8.47,0-13,0-13Z" transform="translate(-133.6 -111.61)"/><path class="cls-16" d="M257,326.55V338a18.93,18.93,0,0,0,6.14-14.42Z" transform="translate(-133.6 -111.61)"/><path class="cls-17" d="M145.67,277.18l-12.07,7.16,3.33.7S143,281.37,145.67,277.18Z" transform="translate(-133.6 -111.61)"/><path class="cls-17" d="M178.66,327.22,184.78,316s-1.57,8.67-1.73,9.18-4.39,2-4.39,2" transform="translate(-133.6 -111.61)"/><path class="cls-18" d="M311.46,273A127.51,127.51,0,0,1,289,286.93s-5.05,29.3,21.47,26.78S328.89,274,311.46,273Z" transform="translate(-133.6 -111.61)"/><path class="cls-19" d="M292.82,285l15.75-9.84s17.29,5.56,9.46,19.89S291.37,307.16,292.82,285Z" transform="translate(-133.6 -111.61)"/><path class="cls-18" d="M330.54,336.66s-1.71,7.18,1.7,10.68,5.12-4.08,5.31-6.73" transform="translate(-133.6 -111.61)"/><path class="cls-3" d="M361.48,293.45c11-9.67,14.4-56.8,14.4-56.8a.5.5,0,0,0,.06-.13,6.7,6.7,0,0,0-6.79-9.13c-16.19,1.32-72,6.77-92.93,20.63,0,0-6.11,7.73,1.81,9.42l4.38-1.4s16.67-1.2,20-2.59c0,0,44.21-12.76,54.44-9.6,0,0-3.66,16.3-9.22,34.11S357.58,296.88,361.48,293.45Z" transform="translate(-133.6 -111.61)"/><polygon class="cls-20" points="299.18 201.17 299.13 214.81 303.33 214.95 304.18 208.32 303.38 200.87 299.18 201.17"/><path class="cls-20" d="M263.16,350.67l8.39-.76s1.41,18.75-10,26.26Z" transform="translate(-133.6 -111.61)"/><line class="cls-21" x1="87.11" y1="193.61" x2="83.94" y2="205.13"/><line class="cls-21" x1="79.77" y1="191.4" x2="75.89" y2="202.9"/><line class="cls-21" x1="72.11" y1="188.76" x2="67.88" y2="200.38"/><line class="cls-21" x1="66.62" y1="186.48" x2="61.62" y2="198.14"/><line class="cls-21" x1="62.22" y1="184.29" x2="56.23" y2="195.88"/><line class="cls-21" x1="58.21" y1="181.84" x2="50.33" y2="193.18"/><line class="cls-21" x1="54.17" y1="178.69" x2="45.32" y2="190.35"/><line class="cls-21" x1="50.14" y1="174.4" x2="39.3" y2="185.88"/><line class="cls-21" x1="47.03" y1="169.5" x2="34.69" y2="180.1"/><line class="cls-21" x1="45.06" y1="164.75" x2="30.44" y2="166.98"/><line class="cls-21" x1="43.59" y1="158.5" x2="28.93" y2="158.5"/><line class="cls-21" x1="43.04" y1="151.32" x2="28.44" y2="151.32"/><line class="cls-21" x1="43.59" y1="144.82" x2="28.82" y2="143.76"/><line class="cls-21" x1="45.63" y1="137.71" x2="32.36" y2="130.16"/><line class="cls-21" x1="49.6" y1="130.77" x2="36.2" y2="123.01"/><line class="cls-21" x1="42.35" y1="115.53" x2="53.59" y2="126.39"/><line class="cls-21" x1="59.91" y1="121.76" x2="50.97" y2="108.57"/><line class="cls-21" x1="65.61" y1="119.13" x2="59.48" y2="105.95"/><line class="cls-21" x1="72.77" y1="117.76" x2="72.11" y2="106.38"/><line class="cls-21" x1="78.96" y1="120.13" x2="81.58" y2="111"/><line class="cls-21" x1="83.34" y1="122.35" x2="87.11" y2="114.06"/><line class="cls-21" x1="88.46" y1="125.11" x2="92.47" y2="117.03"/><line class="cls-21" x1="93.77" y1="128.07" x2="97.68" y2="119.92"/><line class="cls-21" x1="99.62" y1="131.43" x2="103.84" y2="123.33"/><line class="cls-21" x1="105.9" y1="135.1" x2="110.93" y2="127.38"/><line class="cls-21" x1="110.3" y1="137.71" x2="115.71" y2="129.91"/><line class="cls-21" x1="115.34" y1="140.73" x2="120.19" y2="132.4"/><line class="cls-21" x1="120.29" y1="143.71" x2="124.79" y2="135.23"/><line class="cls-21" x1="124.79" y1="146.45" x2="129.98" y2="137.82"/><line class="cls-21" x1="128.78" y1="148.89" x2="133.89" y2="140.26"/><polygon class="cls-7" points="34.64 138.47 23 137.71 33.55 144.09 34.64 138.47"/><polygon class="cls-7" points="34.69 167.26 23 174.8 36.62 172.17 34.69 167.26"/><polygon class="cls-7" points="54.17 190.8 49.15 198.69 58.21 193.16 54.17 190.8"/><polygon class="cls-7" points="61.15 105.95 62.54 99.4 65.34 105.42 61.15 105.95"/><polygon class="cls-7" points="75.11 109.87 83.34 102.89 79.22 111.94 75.11 109.87"/><polygon class="cls-7" points="86.7 115.76 90.47 112.07 90.47 117.7 86.7 115.76"/><polygon class="cls-7" points="99.62 122.51 107.38 118.2 104.47 125.11 99.62 122.51"/><polygon class="cls-7" points="109.11 127.63 113 126.31 113.23 129.91 109.11 127.63"/><polygon class="cls-7" points="120.29 133.91 124.06 132.4 123.05 135.51 120.29 133.91"/><polygon class="cls-7" points="134.67 142.14 138.2 140.26 137.33 144.43 134.67 142.14"/><polygon class="cls-7" points="47.03 111 45.63 98.64 51.79 108.57 47.03 111"/><polygon class="cls-7" points="39 119.21 36.62 114.06 41.58 116.31 39 119.21"/><polygon class="cls-7" points="33.31 128.09 30.91 124.79 35.09 124.79 33.31 128.09"/><path class="cls-7" d="M176.63,293.24l-6.42,10.68,11.61-5.78A58.12,58.12,0,0,1,176.63,293.24Z" transform="translate(-133.6 -111.61)"/><polygon class="cls-7" points="63.71 195.88 62.22 205.13 67.11 197.33 63.71 195.88"/><polygon class="cls-7" points="77.83 201 77.83 210.01 82.52 202.25 77.83 201"/><polygon class="cls-7" points="24.64 155.99 33 152.45 33.04 157.54 24.64 155.99"/><path class="cls-22" d="M253.31,364.46a22.7,22.7,0,0,1,2.23-4.43,30.93,30.93,0,0,1,3-4,25.45,25.45,0,0,1,3.66-3.37c.7-.47,1.36-1,2.1-1.37a15,15,0,0,1,2.29-1l.05.08a31.36,31.36,0,0,0-7.36,6.33,58.44,58.44,0,0,0-5.86,7.78Z" transform="translate(-133.6 -111.61)"/><path class="cls-22" d="M217.5,433.71c.33-.54.68-1.08,1-1.6s.78-1,1.19-1.51a26.66,26.66,0,0,1,2.7-2.72,15,15,0,0,1,3.25-2.12,8,8,0,0,1,1.87-.59,4.37,4.37,0,0,1,1.94.17v.05a5.52,5.52,0,0,0-3.63.71,16.55,16.55,0,0,0-3.1,2.16,38.05,38.05,0,0,0-5.21,5.48Z" transform="translate(-133.6 -111.61)"/><path class="cls-22" d="M305,487.66A17.16,17.16,0,0,1,306,484a19.66,19.66,0,0,1,1.67-3.42,10.53,10.53,0,0,1,2.61-2.84l.39-.28.44-.23a3.74,3.74,0,0,1,.9-.38,5.18,5.18,0,0,1,1-.2c.32,0,.64,0,.95,0v.05a5.86,5.86,0,0,0-3.39,1.35,10.9,10.9,0,0,0-2.43,2.81,25.78,25.78,0,0,0-3,6.83Z" transform="translate(-133.6 -111.61)"/><path class="cls-22" d="M390.92,468.55c0-.64,0-1.28,0-1.93s.15-1.27.25-1.9a21.35,21.35,0,0,1,1.05-3.73,13.9,13.9,0,0,1,2-3.37,8.94,8.94,0,0,1,.67-.71,4.2,4.2,0,0,1,.74-.65,8.73,8.73,0,0,1,1.68-.95l0,.05a8.86,8.86,0,0,0-2.81,2.5,14.08,14.08,0,0,0-1.81,3.32,23,23,0,0,0-1.14,3.62,28.17,28.17,0,0,0-.61,3.75Z" transform="translate(-133.6 -111.61)"/><path class="cls-22" d="M359.52,380.94a17.87,17.87,0,0,1,3.36,3.84,24.76,24.76,0,0,1,2.4,4.52c.32.79.58,1.61.84,2.43a19.68,19.68,0,0,1,.54,2.51,24.22,24.22,0,0,1,.27,2.55,11,11,0,0,1,0,1.28c0,.43,0,.85-.09,1.27h-.1a32.22,32.22,0,0,0-2.37-9.67,35.82,35.82,0,0,0-2.15-4.51,33.07,33.07,0,0,0-2.76-4.17Z" transform="translate(-133.6 -111.61)"/><path class="cls-22" d="M357.06,385.84a13.36,13.36,0,0,1,2.11,2.6,20.83,20.83,0,0,1,1.56,2.91,18.37,18.37,0,0,1,1,3.17,9.52,9.52,0,0,1,.22,3.37h-.1a28.76,28.76,0,0,0-2.08-6.15q-1.28-3-2.84-5.86Z" transform="translate(-133.6 -111.61)"/><text class="cls-23" transform="translate(126.64 58.34)">ERROR!!!<tspan x="-81.95" y="21.95" xml:space="preserve"> PAGINA NO ENCONTRADA!!!!</tspan></text><text class="cls-24" transform="translate(126.64 56.27)">ERROR!!!<tspan x="-81.95" y="21.95" xml:space="preserve"> PAGINA NO ENCONTRADA!!!!</tspan></text></svg>