<svg id="Capa_1" data-name="Capa 1" xmlns="http://www.w3.org/2000/svg" xmlns:xlink="http://www.w3.org/1999/xlink" viewBox="0 0 757.67 483.09"><defs><style>.cls-1{fill:#6f6f70;}.cls-1,.cls-4,.cls-5{stroke:#111212;}.cls-1,.cls-11,.cls-12,.cls-13,.cls-14,.cls-3,.cls-4,.cls-5,.cls-6,.cls-7{stroke-miterlimit:10;}.cls-2{fill:#edeeeb;}.cls-3{fill:#fff;}.cls-11,.cls-12,.cls-13,.cls-14,.cls-3,.cls-6,.cls-7{stroke:#23110d;}.cls-12,.cls-4,.cls-9{fill:none;}.cls-5{fill:#abacb7;}.cls-6{fill:#585368;}.cls-7{fill:#ee7457;}.cls-8{fill:#aa2b1a;}.cls-10{fill:#23110d;}.cls-13{fill:#921f15;}.cls-14{fill:#ed6a52;}.cls-15{fill:#36353c;}.cls-16{fill:#ae2f1f;}.cls-17{fill:#b4aeb9;}.cls-18{fill:#5b5560;}.cls-19{fill:url(#Degradado_sin_nombre_46);}.cls-20{fill:url(#Degradado_sin_nombre_46-2);}.cls-21{fill:url(#Degradado_sin_nombre_46-3);}.cls-22{fill:url(#Degradado_sin_nombre_46-4);}.cls-23{fill:url(#Degradado_sin_nombre_46-5);}.cls-24{fill:url(#Degradado_sin_nombre_46-6);}.cls-25{fill:url(#Degradado_sin_nombre_46-7);}.cls-26{fill:url(#Degradado_sin_nombre_46-8);}.cls-27{fill:url(#Degradado_sin_nombre_46-9);}.cls-28{fill:url(#Degradado_sin_nombre_46-10);}.cls-29{fill:url(#Degradado_sin_nombre_46-11);}.cls-30{fill:url(#Degradado_sin_nombre_46-12);}.cls-31{fill:url(#Degradado_sin_nombre_46-13);}.cls-32{fill:url(#Degradado_sin_nombre_46-14);}.cls-33{fill:url(#Degradado_sin_nombre_46-15);}.cls-34{fill:url(#Degradado_sin_nombre_46-16);}.cls-35{fill:url(#Degradado_sin_nombre_46-17);}.cls-36{fill:url(#Degradado_sin_nombre_46-18);}.cls-37{fill:url(#Degradado_sin_nombre_46-19);}.cls-38{fill:url(#Degradado_sin_nombre_46-20);}.cls-39{fill:url(#Degradado_sin_nombre_46-21);}.cls-40{fill:url(#Degradado_sin_nombre_46-22);}.cls-41{fill:url(#Degradado_sin_nombre_46-23);}.cls-42{fill:url(#Degradado_sin_nombre_46-24);}.cls-43{fill:url(#Degradado_sin_nombre_46-25);}.cls-44{fill:url(#Degradado_sin_nombre_46-26);}.cls-45{fill:url(#Degradado_sin_nombre_46-27);}.cls-46{fill:url(#Degradado_sin_nombre_46-28);}.cls-47{fill:url(#Degradado_sin_nombre_46-29);}.cls-48{fill:url(#Degradado_sin_nombre_46-30);}</style><linearGradient id="Degradado_sin_nombre_46" x1="182.64" y1="515.18" x2="1119.27" y2="515.18" gradientUnits="userSpaceOnUse"><stop offset="0.46" stop-color="#ee7457"/><stop offset="0.63" stop-color="#4fae38"/></linearGradient><linearGradient id="Degradado_sin_nombre_46-2" x1="182.55" y1="532.43" x2="971.87" y2="532.43" xlink:href="#Degradado_sin_nombre_46"/><linearGradient id="Degradado_sin_nombre_46-3" x1="186.11" y1="545.05" x2="943.13" y2="545.05" xlink:href="#Degradado_sin_nombre_46"/><linearGradient id="Degradado_sin_nombre_46-4" x1="171.09" y1="557.26" x2="988.33" y2="557.26" xlink:href="#Degradado_sin_nombre_46"/><linearGradient id="Degradado_sin_nombre_46-5" x1="153.5" y1="563.95" x2="1024.2" y2="563.95" xlink:href="#Degradado_sin_nombre_46"/><linearGradient id="Degradado_sin_nombre_46-6" x1="183.6" y1="569.85" x2="942.83" y2="569.85" xlink:href="#Degradado_sin_nombre_46"/><linearGradient id="Degradado_sin_nombre_46-7" x1="191.77" y1="572.56" x2="935.15" y2="572.56" xlink:href="#Degradado_sin_nombre_46"/><linearGradient id="Degradado_sin_nombre_46-8" x1="178.94" y1="574.69" x2="947.64" y2="574.69" xlink:href="#Degradado_sin_nombre_46"/><linearGradient id="Degradado_sin_nombre_46-9" x1="177.03" y1="575" x2="949.68" y2="575" xlink:href="#Degradado_sin_nombre_46"/><linearGradient id="Degradado_sin_nombre_46-10" x1="175" y1="572.77" x2="950.7" y2="572.77" xlink:href="#Degradado_sin_nombre_46"/><linearGradient id="Degradado_sin_nombre_46-11" x1="139.85" y1="565.03" x2="960.61" y2="565.03" xlink:href="#Degradado_sin_nombre_46"/><linearGradient id="Degradado_sin_nombre_46-12" x1="194.39" y1="556.63" x2="933.28" y2="556.63" xlink:href="#Degradado_sin_nombre_46"/><linearGradient id="Degradado_sin_nombre_46-13" x1="124.23" y1="545.24" x2="954.04" y2="545.24" xlink:href="#Degradado_sin_nombre_46"/><linearGradient id="Degradado_sin_nombre_46-14" x1="125.66" y1="533.05" x2="948.24" y2="533.05" xlink:href="#Degradado_sin_nombre_46"/><linearGradient id="Degradado_sin_nombre_46-15" x1="65.55" y1="516.21" x2="939.3" y2="516.21" xlink:href="#Degradado_sin_nombre_46"/><linearGradient id="Degradado_sin_nombre_46-16" x1="182.64" y1="508.18" x2="1119.27" y2="508.18" xlink:href="#Degradado_sin_nombre_46"/><linearGradient id="Degradado_sin_nombre_46-17" x1="182.55" y1="525.43" x2="971.87" y2="525.43" xlink:href="#Degradado_sin_nombre_46"/><linearGradient id="Degradado_sin_nombre_46-18" x1="186.11" y1="538.05" x2="943.13" y2="538.05" xlink:href="#Degradado_sin_nombre_46"/><linearGradient id="Degradado_sin_nombre_46-19" x1="171.09" y1="550.26" x2="988.33" y2="550.26" xlink:href="#Degradado_sin_nombre_46"/><linearGradient id="Degradado_sin_nombre_46-20" x1="153.5" y1="556.95" x2="1024.2" y2="556.95" xlink:href="#Degradado_sin_nombre_46"/><linearGradient id="Degradado_sin_nombre_46-21" x1="183.6" y1="562.85" x2="942.83" y2="562.85" xlink:href="#Degradado_sin_nombre_46"/><linearGradient id="Degradado_sin_nombre_46-22" x1="191.77" y1="565.56" x2="935.15" y2="565.56" xlink:href="#Degradado_sin_nombre_46"/><linearGradient id="Degradado_sin_nombre_46-23" x1="178.94" y1="567.69" x2="947.64" y2="567.69" xlink:href="#Degradado_sin_nombre_46"/><linearGradient id="Degradado_sin_nombre_46-24" x1="177.03" y1="568" x2="949.68" y2="568" xlink:href="#Degradado_sin_nombre_46"/><linearGradient id="Degradado_sin_nombre_46-25" x1="175" y1="565.77" x2="950.7" y2="565.77" xlink:href="#Degradado_sin_nombre_46"/><linearGradient id="Degradado_sin_nombre_46-26" x1="139.85" y1="558.03" x2="960.61" y2="558.03" xlink:href="#Degradado_sin_nombre_46"/><linearGradient id="Degradado_sin_nombre_46-27" x1="194.39" y1="549.63" x2="933.28" y2="549.63" xlink:href="#Degradado_sin_nombre_46"/><linearGradient id="Degradado_sin_nombre_46-28" x1="124.23" y1="538.24" x2="954.04" y2="538.24" xlink:href="#Degradado_sin_nombre_46"/><linearGradient id="Degradado_sin_nombre_46-29" x1="125.66" y1="526.05" x2="948.24" y2="526.05" xlink:href="#Degradado_sin_nombre_46"/><linearGradient id="Degradado_sin_nombre_46-30" x1="65.55" y1="509.21" x2="939.3" y2="509.21" xlink:href="#Degradado_sin_nombre_46"/></defs><path class="cls-1" d="M317,339.33l-6.49,25.53S328.8,351.64,335,341.7Z" transform="translate(-182.14 -126.94)"/><polygon class="cls-1" points="103.07 202.83 97.4 214.04 121.27 209.5 103.07 202.83"/><polygon class="cls-1" points="78.58 175.14 57.99 196.24 91.81 195.14 78.58 175.14"/><path class="cls-1" d="M451,209.55l5.32-30.37s-24.23,12.13-35.44,24.63Z" transform="translate(-182.14 -126.94)"/><polygon class="cls-1" points="215.39 74.45 229.4 62.47 230.16 75.92 215.39 74.45"/><path class="cls-1" d="M358.21,197.84s25.28-25.53,31.35-25.89c0,0-1.52,30.34-1.52,30.91S358.21,197.84,358.21,197.84Z" transform="translate(-182.14 -126.94)"/><path class="cls-1" d="M326.27,196.74s11.75-11.5,13.65-11.5,1.89,11.48,1.89,11.48Z" transform="translate(-182.14 -126.94)"/><path class="cls-1" d="M292,200.36s10-28.38,18.32-34.82c0,0,4,27.44,6,31.53Z" transform="translate(-182.14 -126.94)"/><path class="cls-1" d="M269.76,192.82s-2,12.64,2.45,21.23l11.35-10.22Z" transform="translate(-182.14 -126.94)"/><path class="cls-1" d="M255.58,270.48l-16.09,2.43s8,8.84,16.09,11.87Z" transform="translate(-182.14 -126.94)"/><path class="cls-1" d="M263.7,228.67,232.93,217.2s6.35,22.69,24,35.54Z" transform="translate(-182.14 -126.94)"/><path class="cls-1" d="M468.38,215.18c-.29.44-17.77-8.65-56.09-12.32-39.45-3.78-88.42-10.25-120.25-2.5s-44.46,65.85-31.32,101.72,51.73,35.8,86.75,42.16l16.32-20.43Z" transform="translate(-182.14 -126.94)"/><path class="cls-2" d="M271.36,225.59c-23.81,39.37-5.72,118.65,61.1,113.74-5.81.52-94.09,3.3-74.44-92.46,0,0,6.31-51.35,58.32-49.8,35.8,1.07,47.92,1,51.81,2.15C369.91,199.73,291.34,192.54,271.36,225.59Z" transform="translate(-182.14 -126.94)"/><path class="cls-3" d="M355,362.72s5.36-10.18-1-10.14S344.59,361.45,355,362.72Z" transform="translate(-182.14 -126.94)"/><path class="cls-4" d="M468.38,215.18c-.29.44-17.77-8.65-56.09-12.32" transform="translate(-182.14 -126.94)"/><path class="cls-5" d="M425.18,220.19s-112.17-9.31-127.83-5-27.16,31.44-27.54,48.69.38,49.84,37.9,59.31,58.35,4.93,58.35,4.93Z" transform="translate(-182.14 -126.94)"/><path class="cls-2" d="M347.72,215.18l-76.36,69.63c-.08-.46,2.36,33.13,43.15,40.1,0,0,95.6-108.41,101.15-105.33Z" transform="translate(-182.14 -126.94)"/><path class="cls-6" d="M620.46,207.09s26.78-45.47,13.65-57.09C621.94,139.24,529.63,132.81,496,135.93a14.64,14.64,0,0,0-11,6.76c-5.32,8.36-15.76,27.23-31.34,66.08l35-3.7s14.15-37.39,23.75-37.89,77.3-2.53,79.32,8.59l-12.5,26.12Z" transform="translate(-182.14 -126.94)"/><path class="cls-7" d="M376.68,428.15s-23,10.36-37.14,11.62-2.08,30.06,23.34,34.36,55.73-14.4,55.73-14.4l-36.33-35.62Z" transform="translate(-182.14 -126.94)"/><path class="cls-4" d="M425.18,220.19s-112.17-9.31-127.83-5-27.16,31.44-27.54,48.69.38,49.84,37.9,59.31,58.35,4.93,58.35,4.93Z" transform="translate(-182.14 -126.94)"/><path class="cls-4" d="M307.71,323.18c37.51,9.47,58.35,4.93,58.35,4.93" transform="translate(-182.14 -126.94)"/><path class="cls-4" d="M468.38,215.18c-.29.44-17.77-8.65-56.09-12.32-39.45-3.78-88.42-10.25-120.25-2.5s-44.46,65.85-31.32,101.72,51.73,35.8,86.75,42.16l16.32-20.43Z" transform="translate(-182.14 -126.94)"/><path class="cls-7" d="M357,332.27l-13.45,10.42s-.67,10.57,10.87,13.35a5.67,5.67,0,0,0,4.85-1.05,18,18,0,0,0,6.63-10.6C367.58,335.87,357,332.27,357,332.27Z" transform="translate(-182.14 -126.94)"/><path class="cls-7" d="M359.75,351.6a3.37,3.37,0,0,1-1.54,3.92c-1.5.84-3.13,2.77-3.26,7.2-.25,8,.21,70.56,79.05,109a64.54,64.54,0,0,0,17.32,5.61l82,14.2a3.34,3.34,0,0,0,.43.05c4.7.18,84.9,3.23,108.92-6.58,18-7.35,54.46-31.81,73-44.6A43.82,43.82,0,0,0,732.81,417c6.4-21.19,14.26-63,1.38-118.34A80.19,80.19,0,0,0,723.92,274c-12.85-20.37-43.42-56.26-103.46-66.92-55-9.76-108.39-6.94-139.37-3.7a154.39,154.39,0,0,0-64,21.36C382.2,245.91,338,286.84,359.75,351.6Z" transform="translate(-182.14 -126.94)"/><path class="cls-8" d="M502.11,435.73S496,420.7,482,449.44s-16.89,15.78-16.89,15.78-61.55-8.08-75.19-25.14c0,0,25.93,27.12,53.81,34.69s2.84.7,2.84.7l46.8-6.78Z" transform="translate(-182.14 -126.94)"/><path class="cls-9" d="M358.21,352.58" transform="translate(-182.14 -126.94)"/><path class="cls-9" d="M407,335.29" transform="translate(-182.14 -126.94)"/><path class="cls-10" d="M359.78,352.28a45.48,45.48,0,0,0,5.89,4.68,36.87,36.87,0,0,0,6.51,3.58,27,27,0,0,0,7,1.92,18.63,18.63,0,0,0,7.17-.55,21.33,21.33,0,0,0,6.55-3,35.85,35.85,0,0,0,5.49-4.9c.84-.9,1.62-1.88,2.41-2.84s1.48-2,2.18-3.05,1.4-2.08,2.05-3.15,1.27-2.18,1.92-3.26l.09.05A57.74,57.74,0,0,1,399,354.49a33,33,0,0,1-5.56,5.13,22.2,22.2,0,0,1-6.82,3.25,19.5,19.5,0,0,1-7.53.49,25.16,25.16,0,0,1-7.25-2.11,39.1,39.1,0,0,1-12.15-8.9Z" transform="translate(-182.14 -126.94)"/><circle class="cls-3" cx="279.8" cy="170.26" r="36.76"/><circle class="cls-11" cx="274.16" cy="164.64" r="27.71"/><path class="cls-7" d="M386.12,362.92" transform="translate(-182.14 -126.94)"/><path class="cls-12" d="M359.75,351.6a3.37,3.37,0,0,1-1.54,3.92c-1.5.84-3.13,2.77-3.26,7.2-.25,8,.21,70.56,79.05,109a64.54,64.54,0,0,0,17.32,5.61l82,14.2a3.34,3.34,0,0,0,.43.05c4.7.18,84.9,3.23,108.92-6.58,18-7.35,54.46-31.81,73-44.6A43.82,43.82,0,0,0,732.81,417c6.4-21.19,14.26-63,1.38-118.34A80.19,80.19,0,0,0,723.92,274c-12.85-20.37-43.42-56.26-103.46-66.92-55-9.76-108.39-6.94-139.37-3.7a154.39,154.39,0,0,0-64,21.36C382.2,245.91,338,286.84,359.75,351.6Z" transform="translate(-182.14 -126.94)"/><path class="cls-13" d="M386.12,362.92s5.19,48.8-18.55,48.42c0,0-17.08-28.09-12.2-51.75,0,0,2.36-4,3.4-3.82s1.53-2.86,1.53-2.86,6.35,6.63,10.25,7.64S379.32,365.1,386.12,362.92Z" transform="translate(-182.14 -126.94)"/><path class="cls-14" d="M386.22,382.05s-16.81-4.71-23.34,20.91l4.31,8.31S382.25,414.34,386.22,382.05Z" transform="translate(-182.14 -126.94)"/><path class="cls-8" d="M740.62,372.34S735.41,424,725.56,428s-10.87,1.67-10.87,1.67-3-5.55,0-5.55S731.18,412,740.62,372.34Z" transform="translate(-182.14 -126.94)"/><path class="cls-3" d="M371.12,361.87l4.12,10.9a.62.62,0,0,0,1.1.13l5.83-8.55a.63.63,0,0,0-.41-1,58,58,0,0,1-9.84-2.32A.62.62,0,0,0,371.12,361.87Z" transform="translate(-182.14 -126.94)"/><path class="cls-7" d="M727.71,428s-.51,10,11.24,3.57,36,27.66,52.67,28.8,6.06,28.42-3,28.42-23.87,1.14-35.05-.95-35.43-2.65-45.86,2.65-44.33,8.72-65-5.49-24.25-43.58-24.25-43.58" transform="translate(-182.14 -126.94)"/><path class="cls-7" d="M504,435.73S452.72,482.21,422.4,482c0,0-13.39.21-7.33,13.12,0,0,3.29,10.37,7.08,15.68s37.13,6.53,76.54-6.26c0,0,12.13-2.08,55.33-21" transform="translate(-182.14 -126.94)"/><path class="cls-7" d="M710.58,266.34s32.73-9.1,40.3-33.16l3.6,1.33s-7.16,37.34-27.28,57.22" transform="translate(-182.14 -126.94)"/><path class="cls-6" d="M747.54,164.65c1.13-20.8-5.51-31-10.39-35.7a5.36,5.36,0,0,0-8,.63c-7.35,9.8-24.5,34.08-16.47,37.09,10.11,3.79,30.82,0,30.82,0,12.38,17.94,7.39,67.27,7.39,67.27l3.6,1.32C761.94,197.24,747.54,164.65,747.54,164.65Zm-27.64-2.19a2.59,2.59,0,0,1-1.4-3.42c3.19-7.41,14.06-31.29,17.92-21.63a90.47,90.47,0,0,1,5.45,23.74S728.18,166,719.9,162.46Z" transform="translate(-182.14 -126.94)"/><path class="cls-6" d="M737,279.32s47.14,15.69,48.15,23.77.25,115.2-1.77,119-2.27,8.34-10.86,10.61-41.43,0-41.43,0l-2.58-2.18a2.63,2.63,0,0,1-.14-3.93c2.56-2.4,6.25-8.82,8.5-26,0,0,11.39,3,16.45-2.78l1.13-64.42s-1.64-9.85-9.72-8.34l-5.69.59s-3.5-27.44-7.5-38.77Z" transform="translate(-182.14 -126.94)"/><path class="cls-15" d="M472.42,204.54s9.68-38.71,24-42.41c14.15-3.66,96.68-12.6,95.24,13.64,0,0-3.31-7.33-18.71-7.2,0,0-54.3-3.16-60.61-1.39,0,0-9.39-.89-22.88,35.68Z" transform="translate(-182.14 -126.94)"/><path class="cls-16" d="M540.45,478.84c-25.5,11-104,38.11-123.73,6.15-1-1.59-2.84,1-3.1,2.85-.58,4,2.39,11.17,9.72,24,1.15,2,46.57,10.83,110.17-19.16a2,2,0,0,0,.72-.54l8.58-10A2,2,0,0,0,540.45,478.84Z" transform="translate(-182.14 -126.94)"/><path class="cls-12" d="M504,435.73S452.72,482.21,422.4,482c0,0-13.39.21-7.33,13.12,0,0,3.29,10.37,7.08,15.68s37.13,6.53,76.54-6.26c0,0,12.13-2.08,55.33-21" transform="translate(-182.14 -126.94)"/><path class="cls-8" d="M548.72,475.14s16.67-8,18.94-10.23c0,0,36.38.45,42.45-3.38,0,0-8.34-22.29-3.79-29.73,0,0,4.54,21.74,7.57,25.53s-3-19.33,0-21.6c0,0,11.21,41.61,28.8,49.26,0,0-64,14.05-108.76,7Z" transform="translate(-182.14 -126.94)"/><path class="cls-17" d="M457.87,207.6c-.22-.62,23.71-65.49,44.61-67.83,20.06-2.25,110.68,3.28,103.5,2.91-10.93-.57-33.71-7.26-83.79-7.54,0,0-26.47-2.11-35,4.86s-33.53,68.77-33.53,68.77Z" transform="translate(-182.14 -126.94)"/><path class="cls-17" d="M497.18,151s-1.69-6.82,34.87-3.41c0,0,8.52,1.7-11.76,4.35S497,155.49,497.18,151Z" transform="translate(-182.14 -126.94)"/><path class="cls-17" d="M481.45,163.26s3.6-9.28,8-6.82-3.6,10-4.93,10S482.1,167.09,481.45,163.26Z" transform="translate(-182.14 -126.94)"/><path class="cls-17" d="M618.82,206.46s1.8.33,2-.12c2.4-4.64,15.07-29.56,15.92-38l.48-8.13C637.31,159.6,619.86,207.67,618.82,206.46Z" transform="translate(-182.14 -126.94)"/><path class="cls-10" d="M415,495.05a6.59,6.59,0,0,1,1.65-2.31A11.87,11.87,0,0,1,419,491.1a19,19,0,0,1,5.32-1.88c.92-.18,1.85-.29,2.77-.41s1.86-.14,2.79-.09,1.85,0,2.77.14,1.84.24,2.74.44v.1l-2.73,0c-.91,0-1.82.08-2.73.11s-1.82.17-2.72.25-1.8.26-2.69.46a22.83,22.83,0,0,0-5.19,1.62,9.73,9.73,0,0,0-4.23,3.28Z" transform="translate(-182.14 -126.94)"/><path class="cls-10" d="M334.26,450.13a6.5,6.5,0,0,1,1.65-2.31,11.91,11.91,0,0,1,2.34-1.65,19,19,0,0,1,5.32-1.88c.92-.18,1.85-.29,2.78-.41s1.85-.14,2.78-.09,1.85.06,2.77.14,1.84.24,2.74.44v.1h-2.73c-.91,0-1.82.07-2.73.1s-1.81.17-2.72.26-1.8.25-2.69.45a23.15,23.15,0,0,0-5.19,1.62,9.73,9.73,0,0,0-4.23,3.28Z" transform="translate(-182.14 -126.94)"/><path class="cls-8" d="M394,469.16a1.84,1.84,0,0,0,2.28.69s19.34-7.58,18.23-8.45c-7.41-5.84-31.33-24.87-35.57-31.95a1.8,1.8,0,0,0-2.36-.74,124,124,0,0,1-14.39,5.82C360.83,435,389.93,463,394,469.16Z" transform="translate(-182.14 -126.94)"/><path class="cls-18" d="M748.35,288.82a3.15,3.15,0,0,0-3-.16c-1.94.91-4.93,2.67-4.74,4.72.28,3,10,22.17,10.33,22.36s8.81,17.72,8.81,17.72l1.1,68.21s-1.76,5.21-10.34,6.15-4.63,22.27-4.63,22.27,27,1.89,30.46-5.31,10.69-113.3,6.9-115.2C779.94,307.92,754.58,292.59,748.35,288.82Z" transform="translate(-182.14 -126.94)"/><path class="cls-17" d="M765.85,303.09s11.75,32.22,0,66.32Z" transform="translate(-182.14 -126.94)"/><path class="cls-17" d="M739.88,284.57c.77-.79,42.89,16.1,42.64,24.56-.21,7.21-5.39,109.7-6.15,112.45s-.27,5-2.73,7.37,4.61,2,6.38-4.1,2.76-31.64,2.61-32.84,1.49-45.3,1.43-46.21.13-41,0-41.55c-.55-2.47.12-5.24-29.37-17,0,0-13.22-6.1-14.32-4.39" transform="translate(-182.14 -126.94)"/><path class="cls-2" d="M369.09,188.08s17.06-8.73,19.59-8.48l.5-7.65C387.44,171.82,368.48,188,369.09,188.08Z" transform="translate(-182.14 -126.94)"/><path class="cls-2" d="M455.07,183.11l.52-3s-12.75,5.63-19.55,11.81C434.66,193.19,455.07,183.11,455.07,183.11Z" transform="translate(-182.14 -126.94)"/><polygon class="cls-2" points="229.04 65.28 220.67 74.47 216.63 74.08 228.95 63.51 229.04 65.28"/><path class="cls-2" d="M340.48,187.43l-7.7,8.88h-5.35c-.14.73,8.69-9.12,12.44-10.5C340.38,185.62,340.22,186.89,340.48,187.43Z" transform="translate(-182.14 -126.94)"/><path class="cls-2" d="M295,195.22s15.69-20.26,16.4-20.4c0,0-1.18-7.06-1.32-8.19S298,183,295,195.22Z" transform="translate(-182.14 -126.94)"/><path class="cls-2" d="M275.73,198.22s-5.3-4-5.49-4.4-1.57,7.29.8,15.67Z" transform="translate(-182.14 -126.94)"/><path class="cls-2" d="M239.24,220.07l-5.46-1.95c-.19.09,4,12.78,12.57,23.62C246.35,241.74,239.46,221.31,239.24,220.07Z" transform="translate(-182.14 -126.94)"/><path class="cls-2" d="M244.13,272.77l5.27,8.1s-8.06-5.82-8.86-7.62Z" transform="translate(-182.14 -126.94)"/><path class="cls-2" d="M254.33,309.34l-12.85,13.27,4.4-.18S252.25,315.68,254.33,309.34Z" transform="translate(-182.14 -126.94)"/><path class="cls-2" d="M284.34,332.65a7.88,7.88,0,0,1-.47,7l-3.51.76Z" transform="translate(-182.14 -126.94)"/><path class="cls-2" d="M315.55,347s.78,11.79.73,12.5-4.85,4.09-4.85,4.09Z" transform="translate(-182.14 -126.94)"/><line class="cls-1" x1="121.31" y1="70.91" x2="116.27" y2="87.99"/><line class="cls-1" x1="159.67" y1="69.78" x2="146.79" y2="87.1"/><line class="cls-1" x1="230.16" y1="75.92" x2="219.55" y2="91.83"/><line class="cls-1" x1="193.12" y1="72.28" x2="186.01" y2="89.19"/><path class="cls-1" d="M268.88,218.78s3.57,11.65,8.22,17.38" transform="translate(-182.14 -126.94)"/><path class="cls-1" d="M256.28,252.25s9.07,11.81,13.48,15.22" transform="translate(-182.14 -126.94)"/><path class="cls-1" d="M258,292.92s10.16.24,15.24,0" transform="translate(-182.14 -126.94)"/><path class="cls-1" d="M273.26,321s10-5.12,13.39-8.41" transform="translate(-182.14 -126.94)"/><path class="cls-1" d="M302,336.08s6.57-8,9.41-12" transform="translate(-182.14 -126.94)"/><path class="cls-1" d="M343.51,329S338.4,339.39,335,341.7" transform="translate(-182.14 -126.94)"/><polygon class="cls-8" points="358.31 351.9 366.58 348.19 368.09 351.72 358.31 356.28 358.31 351.9"/><path class="cls-7" d="M242.63,501.26c-5.7,3.25-5.41.21-3.74,3.36,1.21,2.9.29,6.32-2.62,14.29,0,4.55,2.42,6.75-3.48,9.13-9.36,3.62-17.81,2.06-21.2-.7-4.86,1.31-4.94,6.1-2.13,6.08-3.89,3.55.75,4.44-2.4,5.35s-.69,2.14-5,1.3c2.85,5.36,4,6.11-.7,5.13-5.78,1.55-1.9-.68-9.54,1.25-4.32-6.08-.07-4.21-5.23-4.31,4.25-6-4.79-6.73-3.84-12.59,4.08-5.87,7.17-5.31,9.77-10.62-.65-2,.57-19.58,2.45-16.62-3.74-1.15,4-5.38,4.67-7.94,2.17-1.83.44-5.76,5.16-2.23-1.72-9.81,2.23-6.88,3.26-6.29,5.35-3.41,8.64-2.06,16.47,1.89,7.9,4.45,13.5,10.85,17.83,14.67C233.48,504.73,241,500.85,242.63,501.26Zm-22.86,10.06a10.61,10.61,0,0,1,1.45-2.34c.93-3.24-.58-5.65-4.63-6.42-.74,1.95-.57,3-1.12,4-1.37,1.88-1.91,2.66-1.16,3.05a11.5,11.5,0,0,0-1.46,5.46,8.05,8.05,0,0,0,2.11-.78c1.46-.94,3.33-2,3.9-3.38C219.29,511.79,219.54,511.27,219.77,511.32Z" transform="translate(-182.14 -126.94)"/><path class="cls-7" d="M282.73,554c-6,3.37-5.71.38-3.64,3.49-3,1.66-7.5,3-13.22,8.11-2.66,1.28-1.49-.38-7.74-2.36-8.34-.34-23.44-5.59-18.74-17-7.22-5.93-6.77-9.57-1.28-19.13-2.64-2.19,3.64-5.69,2-7.72a32.74,32.74,0,0,1,23.34-20.62c4.84,4.4,8.29,4.71,6.46,4,.41,2.77,9.88,3,7.78,9.76,1.72-1.09,10.28,5.93,7,12.54,6.05,5-2.91,14.38-4.33,16,2.58,3.12,3.24,13,1.07,17.47C280.51,556.67,281,553.64,282.73,554Zm-22.09-9.89c-1.2,1.41-1,.27-.8,1.24,1.68-.5,3.12-3.44,4.18-7.49,1.14-3.21,2.69-7,2.61-9.92-.9-2.09-1.36-4.17-.85-5.22-1.89-.22-3.38,1.75-4.45,3.26-2.43,3.07-2.89,5.48-4.41,9.16C254.75,541.17,256.75,543.6,260.64,544.12Z" transform="translate(-182.14 -126.94)"/><path class="cls-7" d="M333.72,559.37c-5.22,3.86-5.12.8-3.25,3.78-.49-1.81-1.61-2.57-2.94,1.71,1.35.26,6.25-1.61,4.86-1.92-6.75,9.17-12.67,11.8-13.53,11.34-7.94,1.64-11.26,4.71-12.35,1.23-8.58.32-8-3-13.51-5.64-7.82-8-6.41-20.09-5.79-30.28,4.81-.34,8.94-5.3,9-11.54-1.45-2.34,6.63-8.51,5.56-8.24.54-6.33,8.85-4.63,8.46-2.53,7.61-5,2.82-2,5.69-4.28,6.61-.25,11.79,6.92,15,9.29,1.88.52-.52,2.41,2.58,8.43-3,1.89,3.24.56,2.26,3.45.57,3-3.48,3.6-1.42,9.86-6.34-5-6.4-.5-9.89-.23-4-4.42-7.87-6.22-5.86-8.2-1.06,1.37-1.05,2,.77-2.77-8.15,2.28-2.24,2-6.83-1.38,4,1.72,4.79,1.87-2.39,1-2.37,8.13,2.65,17.69-.92,18.67-2.4,2.9.64,2.81.93,3.76-1.59,4.19-.9,2.75-2.13,3.74,5.75,2.63,2.81-.12,5.6-2.31,10.88-1,9.05-6.37,8.55-2.79,1.71-2.9,6.5,1.51,4.32,3.5C329,554.92,332.88,555.63,333.72,559.37Z" transform="translate(-182.14 -126.94)"/><path class="cls-7" d="M349.19,524.58c-5.5,3.7-5.53.62-3.44,3.56,2.28-3.81,4.27-5.45,6.65-1,4.45.34,11.76-1.06,11.53-.53-4.2,3.44-5.72,4.24-.05,5.65-5.18,3.42-5.3,9.87-3.38,11.5-3.21,4,2.35,4.24.68,5.48-2.11-.33,2.18-1.54.37-4,5,3.74,8.22,2.65,6,.16-3.42-.82,2.58-7.28-1.66-8.6-1.17-7.34,7.86-6.9,8.13-5.61,5.51-4.81-1.15-1.6,1-4.22,5.26-.87,9.35,4.76,10.61,4.94,1.28-.84-2.18.32.59,5.92-3.93.9,2.78-1.7,2.39-.1,1.33,2.63-2.19,3.31,1.87,9.63-6.14.53-4.2,9.5-5.92,13.69-1.7,3.83-5.55,12.66-5,23.5-2.4,4.25-5.09,6.93-7.62,3.35-11.82,3.34-6.72,2.75-12.86-1.63,2.87-.06,4.09-3.47-3.94-7.26.67-3.38,8.79-1,5.55-2.27-1.54-.65,2.42-3.7,3.05-5-1.41,1.36-2.11-2-6.13-1.94,3.73,2-3.79.42-6.1.87,6.79,1.58,1-1.7-.85,3.11.83-2,5.54,3.91,2.21,8-.75-1.79-1,3.11,1.42,3.07-7.11,1.3-.06,1.41-8.53.78-.59-.9,2.94,3.27.26-1.26-9-1.54-4.11-2.3-8.25-5.8.56.66-3,.54-3.79-3.35,3.43-6.32-2-10.29-.38-12.29,4-4.57,6-11,8.11-16.67C343.64,535.13,344.83,526.84,349.19,524.58Z" transform="translate(-182.14 -126.94)"/><path class="cls-7" d="M417.88,542c-3.16,6.39-3.36,6-2.71,11.7a22.4,22.4,0,0,0-2.12,6.89c-.61,9.89.17,16.3-3.25,23.88-4.63,7.31-8.6,8.64-9.61,6.68-3.58,1.31-4.17,4.15-3,1.3-7.53,1.05-7.83-3.4-9.38-7.08-1.29-8.65,1.15-17.68.94-26.14a32.15,32.15,0,0,0,6.53-15.94c-1.91,2.21,4-5.84,1.31-2.07,2.74-7.77,10.22-7.47,13.52-3.82,3.82-4.72.55-.58,1.38-3.05,3.15-.56,5.12,5.7,5.69,7.39C416.76,540,417,541.93,417.88,542Z" transform="translate(-182.14 -126.94)"/><path class="cls-7" d="M450.16,564.67c-3,.9-3.4.09-1.81.89.56,1.32.14,3.12-.47,6.43.83.64,3.76.82,2.62,1.33-3.86,1.71-5.56,2-2,1.91-3.19,1.07-3.16,2.51-2.53,2.21-4.72.81-5.46.6-11.7.27-2.36-.26-2.35-.7-7.72-1.77.57.79.16.61-3.11.2-3.53-.48-1.09-1.49-4-.83-2.32-1.89,1.73-1.75-.29-2.08,2.71-1.35-2.21-1.54-2.65-3.45,2.1-1,4.36-.17,4.83-.69-.4-3.41-2-5.64,2-5.63-.62-1.14,5.83-2.14,8.86-1.63,4.93.65,5.34.35,9.43,1.46-2.17-1.64,1.3-.37,2.23,0C445.08,562.71,448.13,563.59,450.16,564.67Z" transform="translate(-182.14 -126.94)"/><path class="cls-7" d="M504.08,549.66c-4.81,4.53-5.12,1.45-2.68,4.09-.67-1.16-1.93-1.07-2.65,4.1,1.2,2.16,5.26,1.2,2.44,2.18-5.68,2.88-10,1.86-8.09-.28-8.12,2-9.05,5.3-6.66,2.57-3.3,2.58,1.51,6.46-.64,18.29-2.48,2,.83,2.57-2.45,2.83,4.43,8.17,6,11.67,1.55,14.29-5.35,6.11-2.67,4.48-10.69,8.07-7.74-5.11-4-5.18-9.1-5.29,3.12-7.38-5.56-7-5.82-14.74,3.31-1,7,1.44,8.39-4.6-1.17-1.79-4.68-12.31-2.05-9.92-3.54-2.83,3.32-9.61,3.5-11.15.83.84-3.18,0,.7,4.21-7.54-6.6-6.49-3.73-9.34-3.83-3.1-4.87-5.62-5.5-1.67-5.37-2-.63-2.25-1.43-.77-7.14-8,.9.67-1.94-.23-6,9.29-.61,16.71-2.59,15.41-1.88,3.73-2.34,14.79,1.24,14.93,3.37-.17,2.45,5.64,1.57,9.6,2.52C499.75,550.56,502,547,504.08,549.66Z" transform="translate(-182.14 -126.94)"/><path class="cls-7" d="M554.53,596.56c-5,4.91-5.55,1.82-2.77,4.43a13.9,13.9,0,0,0-8,5.83c.09-.25,3.68-3.32.53-3.6-8.22,2.62-12.74.48-8.33-3.68-5.62.17-5,2.24-2.64-1.38-4,.83.49-2.83-2.34-3.47-5-.19-4.14-1.87-10.34-3.46,5.2,3.83,7.9,4,4.93,4.71-3.48,4.71,1.16,3.25-5,9.8-4.42-2.49.75,0-5.65,3.14,2.92-5.48-7.31-1.41-10.37-5.08,3.45-1.63,7,3.44,7.71,3.26-6-4.22-13.23-10.2-9.9-16.58-4.21-.14,2.37-5.94,2.08-7.32,2.15-7.47-.42-14.62,5.83-15-4.17-13,2.12-15.42,5.4-19.77,2.49-7.84,6.2-8.86,17.11-7.23,5.63,1.93,10.74,5.31,15,5.24-6.32,7.22,1.86,8.78-2.42,9.5,6.15,8.52,11.48,20.59,2.65,29.42C548.16,587.51,553.64,592.28,554.53,596.56Zm-24-19c0-2.68-.13-10.34-.53-18.57-.44-1-1.15-1.19-2,.72-.71,4.26-.83,6.83-1.4,9.53-1.27,5.73-1.78,8-1,7.78-.19,1.16.38,2.45,1.32,1.45-.12.73.94,0,1.56.38C529.14,578.67,530.22,577.54,530.56,577.53Z" transform="translate(-182.14 -126.94)"/><path class="cls-7" d="M622.75,591.52c-5.54,7.79-6.94,6.94-4.54,10.84-2.18-.58-5.17-.52-7.06,3.84,1-.37,5.79-3.48,2.29-3.23-7.59,3.25-11.19,2.16-4.3-1.06-7.66,2.08-7.93,4-6.81-1.16-5.59.38-.86-4.23-4.35-5.59-3.34-1,.87-5.55-2.77-11.24,6.77-.43,9.75-3.67,5.6-5.6-4.12,3.48,1.22,2-5.44,10.48-5.29.9,2.27,5-2.81,9.43,4.09-4.85-6.56.32-9-2.5,3.1-1.79,7.06,2.68,6.89,1.91-4.83-4.5-13.39-10.15-11.57-16.5-5.3,2,2-1.33,1.41.81,1.6,1.41-2.75,3.46,4.12,11.36-7.69-2.75-3.56,2.62-5.14,5.16-1.79-1.4-4.11,1.45.31,4.44-2.89,2.8-4.39,4.59-5,.68-12.83,4.92-6.51,2.63-15-1.66,3.77-2.93,4.69-6.76-5.79-7.25-.62-5,9.14-6.08,4.69-9.35-2.29-2.56,2.09-12.51,3.39-24.19-.68-.92.1-6.68-.68-8.64,8.62-1.41,3.9-3.93,6.25-5.06,14.11-1.71,16.65,4.46,18.25,17.17.36-5.4,7.49-5.53,5.32-7.21.24-8.9,3.49-8.8,9.23-11.64-4.52.6,6.89-2.43.69-1.84,3.22-1.31,12.77,2.41,13.35.2-5.36,2.31,4,3.38,1.35,5.48,3.17,3.76,1.13,9.91.76,13.8,3.89.43-2.36,5.87-.49,11.82,4.43,9.5,5.82,15.32,7.22,19.44C622.66,593.4,620.56,591.72,622.75,591.52Z" transform="translate(-182.14 -126.94)"/><path class="cls-7" d="M676.42,590.91c-4.41,5.42-5.32,2.41-2.28,4.71a13.88,13.88,0,0,0-7.3,6.66c.07-.26,3.31-3.7.14-3.64-7.89,3.49-12.62,1.86-8.69-2.76-5.57.78-4.7,2.77-2.77-1.09-3.86,1.26.18-2.86-2.7-3.19-5,.35-4.32-1.42-10.66-2.32,5.58,3.24,8.29,3.17,5.41,4.15-3,5.05,1.5,3.1-3.88,10.27-4.67-2,.75-.05-5.28,3.74,2.31-5.77-7.43-.61-10.86-3.93,3.26-2,7.36,2.66,8,2.41-6.47-3.55-14.26-8.72-11.64-15.41-4.2.31,1.71-6.16,1.28-7.51,1.33-7.66-2-14.48,4.17-15.54-5.56-12.46.44-15.57,3.23-20.24,1.63-8.07,5.2-9.48,16.24-9,5.81,1.31,11.25,4.11,15.45,3.59-5.51,7.85,2.8,8.52-1.38,9.7,7.05,7.8,13.66,19.23,5.83,29C669.11,582.61,675.08,586.75,676.42,590.91Zm-25.91-16.33c-.31-2.65-1.24-10.26-2.53-18.4-.55-.95-1.27-1-1.93.93-.24,4.32-.08,6.89-.36,9.63-.64,5.83-.89,8.2-.16,7.85-.06,1.17.64,2.39,1.47,1.3,0,.74.94-.08,1.59.2C649.22,575.88,650.17,574.64,650.51,574.58Z" transform="translate(-182.14 -126.94)"/><path class="cls-7" d="M719.92,576.39c-3.44,5.43-4.3,2.4-1.6,4.6.86-2.57.42-4.36.47-1.73,1.1-1.24,4.49-5.52,2.58-6-4.63,2.94-8.65,1-7.3-4.1-6.12,1.13-6.55,2.93-6.21-1.38-4.15,1.36-2.21-2.92-6-3.39-4.37-2.72-3.09-8.1-6.49-12.78,4.07-2.33,7.52-7.79,8.48-12,1.48-1.89,10.06-9.09,13.12-5.08.6-4.56,10.14-3.93,11.28.92,4.44-5.23.87,2.08,2.1,1.78,3.47-1.08,8.11,4.43,8.85,5.22-1.13-.23-5.7,2-4,5.92-3.35,1.2,1.09-4.22.82-3.38-.17,3.09-5,4.51-2,8-7-5-4.69-2.36-6.61-1.57-3.27-3.83-5.11-4.23-1.31-6-.63.86-1,1.72-2.28-2.17-7,6-2,4.22-7.16,3,3.73,1.3,4.93.71-1.63,3.54,0-.93,8.35,1.88,7.43,4.78,5.75,5.5,12.36,4.91,13.94,5.1,4.47,6.1,6.6,7.12,5.57,12.23,5.07,1.52-.19,3-.74,4.71,8,4.82-.9,8-9.52,16.83-3.45-1.32-1.45,2.27-6.75,5.11-2.12-3.26-1.56.26-.18-1.54-5,2,1.37-1.38-4.48-.18-11-1.35-11.66-1.81-14.41-11.61-5.85-.41-.5-2.94-3.35-4.1,1.87,1.25.23,4.34-.31,4.22,2.14-5.1-2.09-4.52,0-3.62,3.56-.38,5-2.41,6.72-4.18.06-1.34,2.39-.74-2.49,1.14,9.61,3,7.86,4.14,13.06,3.52-4.66.12-.88.59-3.08-2.21C717.12,577.1,718.4,576.69,719.92,576.39Z" transform="translate(-182.14 -126.94)"/><path class="cls-7" d="M789.76,527.32c-3.47,5.65-4.58,2.76-1.52,4.66-1-.94-2.15-.52-1.5,4.65,1.75,1.77,5.43-.22,3,1.47-4.75,4.27-9.18,4.42-7.92,1.86-7.35,4-7.37,7.5-5.77,4.23-2.52,3.36,3.16,5.84,4.18,17.82-1.87,2.58,1.49,2.26-1.63,3.37,6.45,6.72,8.94,9.67,5.27,13.38-3.58,7.31-1.42,5-8.24,10.6-8.84-2.89-5.27-3.93-10.19-2.71,1.07-7.94-7.23-5.3-9.51-12.68,2.93-1.86,7.16-.46,6.91-6.65-1.6-1.43-7.77-10.65-4.59-9-4.18-1.8.68-10.15.45-11.68,1,.59-3.08.85,1.78,3.88-9-4.39-7.25-1.89-10-1.24-4.28-3.89-6.88-3.83-3-4.74-2.09-.1-2.56-.79-2.63-6.69-7.53,3,.14-2.05-1.81-5.74,8.83-3,15.49-6.89,14.43-5.86,3-3.24,14.64-2.71,15.34-.68.48,2.4,5.88,0,10-.11C785.81,529.34,787,525.31,789.76,527.32Z" transform="translate(-182.14 -126.94)"/><path class="cls-7" d="M848,553c-3.55,5.85-4.8,3.12-1.47,4.81-1.77,2.91-5.05,6.34-7.56,13.54-1.7,2.42-1.48.4-7.89,1.73-7.44,3.78-23.12,6.54-24.58-5.68-9.16-1.66-10.53-5-10.43-16.07-3.36-.62.39-6.75-2-7.73a32.69,32.69,0,0,1,10.21-29.38c6.35,1.47,9.51.06,7.57.34,1.71,2.23,10.08-2.19,11.54,4.73,1-1.8,11.86.15,12.19,7.53,7.73,1.42,4.49,14,4.06,16.12,3.78,1.47,9.19,9.78,9.48,14.72C847.41,556.38,846.3,553.53,848,553ZM824,555.14c-.36,1.82-.71.72-.09,1.47,1.22-1.25,1-4.52,0-8.57-.58-3.36-1.09-7.42-2.57-9.93-1.81-1.38-3.23-3-3.29-4.14-1.76.74-2.09,3.18-2.28,5-.62,3.87.16,6.19.63,10.14C817.4,555.44,820.32,556.59,824,555.14Z" transform="translate(-182.14 -126.94)"/><path class="cls-7" d="M902.93,542.79c-3.08,6-4.65,3.3-1.31,4.89-1.77.2-4.15,1.71-4.73,7.73-.53,1.74,1.12-.9-2.79.33-8.73,6-17.32,2.27-20.07-10-3,4.12-.45,7.71,1.24,5-1.45,6.1,2.27,5.64-1.1,10.16-4.62,3.11-4.28,2-10.43,2.05,4.61,1.91,5.86.88,2,1.54-5.89,3.5-4.39-1.83-8.82,2.59-5.52-4.65.49-8-2.54-8,2.48-6.3-4.61-2.85-6.24-5.42,2.44-2.62,6.2-3.4,4.62-12.74-4.1-11.45-10.16-18.13-7.43-22.26-4-2.34,2.48-11.68,6.72-13.59,3.45-1,4.24-2.42,16.45-2.7.52-6.1,10.56-3.1,14.33,1.85,1.66.85,3.53,6,9.82,9.82,1.08,6,1.64,11-.1,10.5-6.5,7.61-1.54,6.26-9,8.58,12.68,3.65,18.72,5.82,12.54,13.11C895.56,544,901.2,542.77,902.93,542.79Zm-35.59-25.14c-.43,1.19-.77.61-.22,1-.6-.36-1.13-.46-1.18.43,0-.11-.2-.38-1.66.75-.77,1-.89,2.16.54,3.66a24.91,24.91,0,0,0,2.37,8.22,12,12,0,0,0,4.2-3.89c.65-1.52,1.34-3.52.36-5.07C872.14,521.3,870.14,519.1,867.34,517.65Z" transform="translate(-182.14 -126.94)"/><path class="cls-7" d="M933.64,500.81c-1.36,6.44-2.47,4.45.58,6.92a23.72,23.72,0,0,0-2.7,9.65c-.6,1.52-.08-1.24-3.78-.47-3.42,3.86-6.3,3.39-4.1-.41-2.22,3.31.12,7.44,1.28,6.62-1.16,4.11,2.45,1.78,2.23,4.17.06-.56,3.68-3.7,2.28-4.31,7.23,1.62,10.59,1.33,9.22,3.75-.51,5.32,2.11,2.86-.59,10.89-4.35-.61,0,1.22-3.53,7.58-.82-4-8,4.16-13.12,2.8-1.16-1.47.36,2.63-2,2-2.73-1.38-8.51-1.14-8.48-1.46-6.23-1.07-6.53-13.79-10.2-23.89-.92-6-5.52-13-2.14-19-7.33-9.09-3.59-10.41-2.43-11.55-1.93-3.37,10.16-7.94,14.18-8,2.08.61,4.76.78,6.14-3.9-.28,5.24,6.94,2.49,3.95,3.34,4.3.17,5.6-.82.43,3,0-.41,6.46,1.83,3.17,6.08-1.92,4.13-2.44,2.66-5.3,3-.33,3.24-2,1.14-3.92,2.61,4.21.76-.39,3-.69,4.73,6.15-.56,1.24-1.27,1.72,2.67-.51-2.41,5-.55,4.52,2-1-4.62,2.48-2.67,6.28-5.55C925.39,505.87,929.78,499.66,933.64,500.81Z" transform="translate(-182.14 -126.94)"/><path class="cls-19" d="M242.63,501.26c-5.7,3.25-5.41.21-3.74,3.36,1.21,2.9.29,6.32-2.62,14.29,0,4.55,2.42,6.75-3.48,9.13-9.36,3.62-17.81,2.06-21.2-.7-4.86,1.31-4.94,6.1-2.13,6.08-3.89,3.55.75,4.44-2.4,5.35s-.69,2.14-5,1.3c2.85,5.36,4,6.11-.7,5.13-5.78,1.55-1.9-.68-9.54,1.25-4.32-6.08-.07-4.21-5.23-4.31,4.25-6-4.79-6.73-3.84-12.59,4.08-5.87,7.17-5.31,9.77-10.62-.65-2,.57-19.58,2.45-16.62-3.74-1.15,4-5.38,4.67-7.94,2.17-1.83.44-5.76,5.16-2.23-1.72-9.81,2.23-6.88,3.26-6.29,5.35-3.41,8.64-2.06,16.47,1.89,7.9,4.45,13.5,10.85,17.83,14.67C233.48,504.73,241,500.85,242.63,501.26Zm-22.86,10.06a10.61,10.61,0,0,1,1.45-2.34c.93-3.24-.58-5.65-4.63-6.42-.74,1.95-.57,3-1.12,4-1.37,1.88-1.91,2.66-1.16,3.05a11.5,11.5,0,0,0-1.46,5.46,8.05,8.05,0,0,0,2.11-.78c1.46-.94,3.33-2,3.9-3.38C219.29,511.79,219.54,511.27,219.77,511.32Z" transform="translate(-182.14 -126.94)"/><path class="cls-20" d="M282.73,554c-6,3.37-5.71.38-3.64,3.49-3,1.66-7.5,3-13.22,8.11-2.66,1.28-1.49-.38-7.74-2.36-8.34-.34-23.44-5.59-18.74-17-7.22-5.93-6.77-9.57-1.28-19.13-2.64-2.19,3.64-5.69,2-7.72a32.74,32.74,0,0,1,23.34-20.62c4.84,4.4,8.29,4.71,6.46,4,.41,2.77,9.88,3,7.78,9.76,1.72-1.09,10.28,5.93,7,12.54,6.05,5-2.91,14.38-4.33,16,2.58,3.12,3.24,13,1.07,17.47C280.51,556.67,281,553.64,282.73,554Zm-22.09-9.89c-1.2,1.41-1,.27-.8,1.24,1.68-.5,3.12-3.44,4.18-7.49,1.14-3.21,2.69-7,2.61-9.92-.9-2.09-1.36-4.17-.85-5.22-1.89-.22-3.38,1.75-4.45,3.26-2.43,3.07-2.89,5.48-4.41,9.16C254.75,541.17,256.75,543.6,260.64,544.12Z" transform="translate(-182.14 -126.94)"/><path class="cls-21" d="M333.72,559.37c-5.22,3.86-5.12.8-3.25,3.78-.49-1.81-1.61-2.57-2.94,1.71,1.35.26,6.25-1.61,4.86-1.92-6.75,9.17-12.67,11.8-13.53,11.34-7.94,1.64-11.26,4.71-12.35,1.23-8.58.32-8-3-13.51-5.64-7.82-8-6.41-20.09-5.79-30.28,4.81-.34,8.94-5.3,9-11.54-1.45-2.34,6.63-8.51,5.56-8.24.54-6.33,8.85-4.63,8.46-2.53,7.61-5,2.82-2,5.69-4.28,6.61-.25,11.79,6.92,15,9.29,1.88.52-.52,2.41,2.58,8.43-3,1.89,3.24.56,2.26,3.45.57,3-3.48,3.6-1.42,9.86-6.34-5-6.4-.5-9.89-.23-4-4.42-7.87-6.22-5.86-8.2-1.06,1.37-1.05,2,.77-2.77-8.15,2.28-2.24,2-6.83-1.38,4,1.72,4.79,1.87-2.39,1-2.37,8.13,2.65,17.69-.92,18.67-2.4,2.9.64,2.81.93,3.76-1.59,4.19-.9,2.75-2.13,3.74,5.75,2.63,2.81-.12,5.6-2.31,10.88-1,9.05-6.37,8.55-2.79,1.71-2.9,6.5,1.51,4.32,3.5C329,554.92,332.88,555.63,333.72,559.37Z" transform="translate(-182.14 -126.94)"/><path class="cls-22" d="M349.19,524.58c-5.5,3.7-5.53.62-3.44,3.56,2.28-3.81,4.27-5.45,6.65-1,4.45.34,11.76-1.06,11.53-.53-4.2,3.44-5.72,4.24-.05,5.65-5.18,3.42-5.3,9.87-3.38,11.5-3.21,4,2.35,4.24.68,5.48-2.11-.33,2.18-1.54.37-4,5,3.74,8.22,2.65,6,.16-3.42-.82,2.58-7.28-1.66-8.6-1.17-7.34,7.86-6.9,8.13-5.61,5.51-4.81-1.15-1.6,1-4.22,5.26-.87,9.35,4.76,10.61,4.94,1.28-.84-2.18.32.59,5.92-3.93.9,2.78-1.7,2.39-.1,1.33,2.63-2.19,3.31,1.87,9.63-6.14.53-4.2,9.5-5.92,13.69-1.7,3.83-5.55,12.66-5,23.5-2.4,4.25-5.09,6.93-7.62,3.35-11.82,3.34-6.72,2.75-12.86-1.63,2.87-.06,4.09-3.47-3.94-7.26.67-3.38,8.79-1,5.55-2.27-1.54-.65,2.42-3.7,3.05-5-1.41,1.36-2.11-2-6.13-1.94,3.73,2-3.79.42-6.1.87,6.79,1.58,1-1.7-.85,3.11.83-2,5.54,3.91,2.21,8-.75-1.79-1,3.11,1.42,3.07-7.11,1.3-.06,1.41-8.53.78-.59-.9,2.94,3.27.26-1.26-9-1.54-4.11-2.3-8.25-5.8.56.66-3,.54-3.79-3.35,3.43-6.32-2-10.29-.38-12.29,4-4.57,6-11,8.11-16.67C343.64,535.13,344.83,526.84,349.19,524.58Z" transform="translate(-182.14 -126.94)"/><path class="cls-23" d="M417.88,542c-3.16,6.39-3.36,6-2.71,11.7a22.4,22.4,0,0,0-2.12,6.89c-.61,9.89.17,16.3-3.25,23.88-4.63,7.31-8.6,8.64-9.61,6.68-3.58,1.31-4.17,4.15-3,1.3-7.53,1.05-7.83-3.4-9.38-7.08-1.29-8.65,1.15-17.68.94-26.14a32.15,32.15,0,0,0,6.53-15.94c-1.91,2.21,4-5.84,1.31-2.07,2.74-7.77,10.22-7.47,13.52-3.82,3.82-4.72.55-.58,1.38-3.05,3.15-.56,5.12,5.7,5.69,7.39C416.76,540,417,541.93,417.88,542Z" transform="translate(-182.14 -126.94)"/><path class="cls-24" d="M450.16,564.67c-3,.9-3.4.09-1.81.89.56,1.32.14,3.12-.47,6.43.83.64,3.76.82,2.62,1.33-3.86,1.71-5.56,2-2,1.91-3.19,1.07-3.16,2.51-2.53,2.21-4.72.81-5.46.6-11.7.27-2.36-.26-2.35-.7-7.72-1.77.57.79.16.61-3.11.2-3.53-.48-1.09-1.49-4-.83-2.32-1.89,1.73-1.75-.29-2.08,2.71-1.35-2.21-1.54-2.65-3.45,2.1-1,4.36-.17,4.83-.69-.4-3.41-2-5.64,2-5.63-.62-1.14,5.83-2.14,8.86-1.63,4.93.65,5.34.35,9.43,1.46-2.17-1.64,1.3-.37,2.23,0C445.08,562.71,448.13,563.59,450.16,564.67Z" transform="translate(-182.14 -126.94)"/><path class="cls-25" d="M504.08,549.66c-4.81,4.53-5.12,1.45-2.68,4.09-.67-1.16-1.93-1.07-2.65,4.1,1.2,2.16,5.26,1.2,2.44,2.18-5.68,2.88-10,1.86-8.09-.28-8.12,2-9.05,5.3-6.66,2.57-3.3,2.58,1.51,6.46-.64,18.29-2.48,2,.83,2.57-2.45,2.83,4.43,8.17,6,11.67,1.55,14.29-5.35,6.11-2.67,4.48-10.69,8.07-7.74-5.11-4-5.18-9.1-5.29,3.12-7.38-5.56-7-5.82-14.74,3.31-1,7,1.44,8.39-4.6-1.17-1.79-4.68-12.31-2.05-9.92-3.54-2.83,3.32-9.61,3.5-11.15.83.84-3.18,0,.7,4.21-7.54-6.6-6.49-3.73-9.34-3.83-3.1-4.87-5.62-5.5-1.67-5.37-2-.63-2.25-1.43-.77-7.14-8,.9.67-1.94-.23-6,9.29-.61,16.71-2.59,15.41-1.88,3.73-2.34,14.79,1.24,14.93,3.37-.17,2.45,5.64,1.57,9.6,2.52C499.75,550.56,502,547,504.08,549.66Z" transform="translate(-182.14 -126.94)"/><path class="cls-26" d="M554.53,596.56c-5,4.91-5.55,1.82-2.77,4.43a13.9,13.9,0,0,0-8,5.83c.09-.25,3.68-3.32.53-3.6-8.22,2.62-12.74.48-8.33-3.68-5.62.17-5,2.24-2.64-1.38-4,.83.49-2.83-2.34-3.47-5-.19-4.14-1.87-10.34-3.46,5.2,3.83,7.9,4,4.93,4.71-3.48,4.71,1.16,3.25-5,9.8-4.42-2.49.75,0-5.65,3.14,2.92-5.48-7.31-1.41-10.37-5.08,3.45-1.63,7,3.44,7.71,3.26-6-4.22-13.23-10.2-9.9-16.58-4.21-.14,2.37-5.94,2.08-7.32,2.15-7.47-.42-14.62,5.83-15-4.17-13,2.12-15.42,5.4-19.77,2.49-7.84,6.2-8.86,17.11-7.23,5.63,1.93,10.74,5.31,15,5.24-6.32,7.22,1.86,8.78-2.42,9.5,6.15,8.52,11.48,20.59,2.65,29.42C548.16,587.51,553.64,592.28,554.53,596.56Zm-24-19c0-2.68-.13-10.34-.53-18.57-.44-1-1.15-1.19-2,.72-.71,4.26-.83,6.83-1.4,9.53-1.27,5.73-1.78,8-1,7.78-.19,1.16.38,2.45,1.32,1.45-.12.73.94,0,1.56.38C529.14,578.67,530.22,577.54,530.56,577.53Z" transform="translate(-182.14 -126.94)"/><path class="cls-27" d="M622.75,591.52c-5.54,7.79-6.94,6.94-4.54,10.84-2.18-.58-5.17-.52-7.06,3.84,1-.37,5.79-3.48,2.29-3.23-7.59,3.25-11.19,2.16-4.3-1.06-7.66,2.08-7.93,4-6.81-1.16-5.59.38-.86-4.23-4.35-5.59-3.34-1,.87-5.55-2.77-11.24,6.77-.43,9.75-3.67,5.6-5.6-4.12,3.48,1.22,2-5.44,10.48-5.29.9,2.27,5-2.81,9.43,4.09-4.85-6.56.32-9-2.5,3.1-1.79,7.06,2.68,6.89,1.91-4.83-4.5-13.39-10.15-11.57-16.5-5.3,2,2-1.33,1.41.81,1.6,1.41-2.75,3.46,4.12,11.36-7.69-2.75-3.56,2.62-5.14,5.16-1.79-1.4-4.11,1.45.31,4.44-2.89,2.8-4.39,4.59-5,.68-12.83,4.92-6.51,2.63-15-1.66,3.77-2.93,4.69-6.76-5.79-7.25-.62-5,9.14-6.08,4.69-9.35-2.29-2.56,2.09-12.51,3.39-24.19-.68-.92.1-6.68-.68-8.64,8.62-1.41,3.9-3.93,6.25-5.06,14.11-1.71,16.65,4.46,18.25,17.17.36-5.4,7.49-5.53,5.32-7.21.24-8.9,3.49-8.8,9.23-11.64-4.52.6,6.89-2.43.69-1.84,3.22-1.31,12.77,2.41,13.35.2-5.36,2.31,4,3.38,1.35,5.48,3.17,3.76,1.13,9.91.76,13.8,3.89.43-2.36,5.87-.49,11.82,4.43,9.5,5.82,15.32,7.22,19.44C622.66,593.4,620.56,591.72,622.75,591.52Z" transform="translate(-182.14 -126.94)"/><path class="cls-28" d="M676.42,590.91c-4.41,5.42-5.32,2.41-2.28,4.71a13.88,13.88,0,0,0-7.3,6.66c.07-.26,3.31-3.7.14-3.64-7.89,3.49-12.62,1.86-8.69-2.76-5.57.78-4.7,2.77-2.77-1.09-3.86,1.26.18-2.86-2.7-3.19-5,.35-4.32-1.42-10.66-2.32,5.58,3.24,8.29,3.17,5.41,4.15-3,5.05,1.5,3.1-3.88,10.27-4.67-2,.75-.05-5.28,3.74,2.31-5.77-7.43-.61-10.86-3.93,3.26-2,7.36,2.66,8,2.41-6.47-3.55-14.26-8.72-11.64-15.41-4.2.31,1.71-6.16,1.28-7.51,1.33-7.66-2-14.48,4.17-15.54-5.56-12.46.44-15.57,3.23-20.24,1.63-8.07,5.2-9.48,16.24-9,5.81,1.31,11.25,4.11,15.45,3.59-5.51,7.85,2.8,8.52-1.38,9.7,7.05,7.8,13.66,19.23,5.83,29C669.11,582.61,675.08,586.75,676.42,590.91Zm-25.91-16.33c-.31-2.65-1.24-10.26-2.53-18.4-.55-.95-1.27-1-1.93.93-.24,4.32-.08,6.89-.36,9.63-.64,5.83-.89,8.2-.16,7.85-.06,1.17.64,2.39,1.47,1.3,0,.74.94-.08,1.59.2C649.22,575.88,650.17,574.64,650.51,574.58Z" transform="translate(-182.14 -126.94)"/><path class="cls-29" d="M719.92,576.39c-3.44,5.43-4.3,2.4-1.6,4.6.86-2.57.42-4.36.47-1.73,1.1-1.24,4.49-5.52,2.58-6-4.63,2.94-8.65,1-7.3-4.1-6.12,1.13-6.55,2.93-6.21-1.38-4.15,1.36-2.21-2.92-6-3.39-4.37-2.72-3.09-8.1-6.49-12.78,4.07-2.33,7.52-7.79,8.48-12,1.48-1.89,10.06-9.09,13.12-5.08.6-4.56,10.14-3.93,11.28.92,4.44-5.23.87,2.08,2.1,1.78,3.47-1.08,8.11,4.43,8.85,5.22-1.13-.23-5.7,2-4,5.92-3.35,1.2,1.09-4.22.82-3.38-.17,3.09-5,4.51-2,8-7-5-4.69-2.36-6.61-1.57-3.27-3.83-5.11-4.23-1.31-6-.63.86-1,1.72-2.28-2.17-7,6-2,4.22-7.16,3,3.73,1.3,4.93.71-1.63,3.54,0-.93,8.35,1.88,7.43,4.78,5.75,5.5,12.36,4.91,13.94,5.1,4.47,6.1,6.6,7.12,5.57,12.23,5.07,1.52-.19,3-.74,4.71,8,4.82-.9,8-9.52,16.83-3.45-1.32-1.45,2.27-6.75,5.11-2.12-3.26-1.56.26-.18-1.54-5,2,1.37-1.38-4.48-.18-11-1.35-11.66-1.81-14.41-11.61-5.85-.41-.5-2.94-3.35-4.1,1.87,1.25.23,4.34-.31,4.22,2.14-5.1-2.09-4.52,0-3.62,3.56-.38,5-2.41,6.72-4.18.06-1.34,2.39-.74-2.49,1.14,9.61,3,7.86,4.14,13.06,3.52-4.66.12-.88.59-3.08-2.21C717.12,577.1,718.4,576.69,719.92,576.39Z" transform="translate(-182.14 -126.94)"/><path class="cls-30" d="M789.76,527.32c-3.47,5.65-4.58,2.76-1.52,4.66-1-.94-2.15-.52-1.5,4.65,1.75,1.77,5.43-.22,3,1.47-4.75,4.27-9.18,4.42-7.92,1.86-7.35,4-7.37,7.5-5.77,4.23-2.52,3.36,3.16,5.84,4.18,17.82-1.87,2.58,1.49,2.26-1.63,3.37,6.45,6.72,8.94,9.67,5.27,13.38-3.58,7.31-1.42,5-8.24,10.6-8.84-2.89-5.27-3.93-10.19-2.71,1.07-7.94-7.23-5.3-9.51-12.68,2.93-1.86,7.16-.46,6.91-6.65-1.6-1.43-7.77-10.65-4.59-9-4.18-1.8.68-10.15.45-11.68,1,.59-3.08.85,1.78,3.88-9-4.39-7.25-1.89-10-1.24-4.28-3.89-6.88-3.83-3-4.74-2.09-.1-2.56-.79-2.63-6.69-7.53,3,.14-2.05-1.81-5.74,8.83-3,15.49-6.89,14.43-5.86,3-3.24,14.64-2.71,15.34-.68.48,2.4,5.88,0,10-.11C785.81,529.34,787,525.31,789.76,527.32Z" transform="translate(-182.14 -126.94)"/><path class="cls-31" d="M848,553c-3.55,5.85-4.8,3.12-1.47,4.81-1.77,2.91-5.05,6.34-7.56,13.54-1.7,2.42-1.48.4-7.89,1.73-7.44,3.78-23.12,6.54-24.58-5.68-9.16-1.66-10.53-5-10.43-16.07-3.36-.62.39-6.75-2-7.73a32.69,32.69,0,0,1,10.21-29.38c6.35,1.47,9.51.06,7.57.34,1.71,2.23,10.08-2.19,11.54,4.73,1-1.8,11.86.15,12.19,7.53,7.73,1.42,4.49,14,4.06,16.12,3.78,1.47,9.19,9.78,9.48,14.72C847.41,556.38,846.3,553.53,848,553ZM824,555.14c-.36,1.82-.71.72-.09,1.47,1.22-1.25,1-4.52,0-8.57-.58-3.36-1.09-7.42-2.57-9.93-1.81-1.38-3.23-3-3.29-4.14-1.76.74-2.09,3.18-2.28,5-.62,3.87.16,6.19.63,10.14C817.4,555.44,820.32,556.59,824,555.14Z" transform="translate(-182.14 -126.94)"/><path class="cls-32" d="M902.93,542.79c-3.08,6-4.65,3.3-1.31,4.89-1.77.2-4.15,1.71-4.73,7.73-.53,1.74,1.12-.9-2.79.33-8.73,6-17.32,2.27-20.07-10-3,4.12-.45,7.71,1.24,5-1.45,6.1,2.27,5.64-1.1,10.16-4.62,3.11-4.28,2-10.43,2.05,4.61,1.91,5.86.88,2,1.54-5.89,3.5-4.39-1.83-8.82,2.59-5.52-4.65.49-8-2.54-8,2.48-6.3-4.61-2.85-6.24-5.42,2.44-2.62,6.2-3.4,4.62-12.74-4.1-11.45-10.16-18.13-7.43-22.26-4-2.34,2.48-11.68,6.72-13.59,3.45-1,4.24-2.42,16.45-2.7.52-6.1,10.56-3.1,14.33,1.85,1.66.85,3.53,6,9.82,9.82,1.08,6,1.64,11-.1,10.5-6.5,7.61-1.54,6.26-9,8.58,12.68,3.65,18.72,5.82,12.54,13.11C895.56,544,901.2,542.77,902.93,542.79Zm-35.59-25.14c-.43,1.19-.77.61-.22,1-.6-.36-1.13-.46-1.18.43,0-.11-.2-.38-1.66.75-.77,1-.89,2.16.54,3.66a24.91,24.91,0,0,0,2.37,8.22,12,12,0,0,0,4.2-3.89c.65-1.52,1.34-3.52.36-5.07C872.14,521.3,870.14,519.1,867.34,517.65Z" transform="translate(-182.14 -126.94)"/><path class="cls-33" d="M933.64,500.81c-1.36,6.44-2.47,4.45.58,6.92a23.72,23.72,0,0,0-2.7,9.65c-.6,1.52-.08-1.24-3.78-.47-3.42,3.86-6.3,3.39-4.1-.41-2.22,3.31.12,7.44,1.28,6.62-1.16,4.11,2.45,1.78,2.23,4.17.06-.56,3.68-3.7,2.28-4.31,7.23,1.62,10.59,1.33,9.22,3.75-.51,5.32,2.11,2.86-.59,10.89-4.35-.61,0,1.22-3.53,7.58-.82-4-8,4.16-13.12,2.8-1.16-1.47.36,2.63-2,2-2.73-1.38-8.51-1.14-8.48-1.46-6.23-1.07-6.53-13.79-10.2-23.89-.92-6-5.52-13-2.14-19-7.33-9.09-3.59-10.41-2.43-11.55-1.93-3.37,10.16-7.94,14.18-8,2.08.61,4.76.78,6.14-3.9-.28,5.24,6.94,2.49,3.95,3.34,4.3.17,5.6-.82.43,3,0-.41,6.46,1.83,3.17,6.08-1.92,4.13-2.44,2.66-5.3,3-.33,3.24-2,1.14-3.92,2.61,4.21.76-.39,3-.69,4.73,6.15-.56,1.24-1.27,1.72,2.67-.51-2.41,5-.55,4.52,2-1-4.62,2.48-2.67,6.28-5.55C925.39,505.87,929.78,499.66,933.64,500.81Z" transform="translate(-182.14 -126.94)"/><path class="cls-12" d="M242.63,501.26c-5.7,3.25-5.41.21-3.74,3.36,1.21,2.9.29,6.32-2.62,14.29,0,4.55,2.42,6.75-3.48,9.13-9.36,3.62-17.81,2.06-21.2-.7-4.86,1.31-4.94,6.1-2.13,6.08-3.89,3.55.75,4.44-2.4,5.35s-.69,2.14-5,1.3c2.85,5.36,4,6.11-.7,5.13-5.78,1.55-1.9-.68-9.54,1.25-4.32-6.08-.07-4.21-5.23-4.31,4.25-6-4.79-6.73-3.84-12.59,4.08-5.87,7.17-5.31,9.77-10.62-.65-2,.57-19.58,2.45-16.62-3.74-1.15,4-5.38,4.67-7.94,2.17-1.83.44-5.76,5.16-2.23-1.72-9.81,2.23-6.88,3.26-6.29,5.35-3.41,8.64-2.06,16.47,1.89,7.9,4.45,13.5,10.85,17.83,14.67C233.48,504.73,241,500.85,242.63,501.26Zm-22.86,10.06a10.61,10.61,0,0,1,1.45-2.34c.93-3.24-.58-5.65-4.63-6.42-.74,1.95-.57,3-1.12,4-1.37,1.88-1.91,2.66-1.16,3.05a11.5,11.5,0,0,0-1.46,5.46,8.05,8.05,0,0,0,2.11-.78c1.46-.94,3.33-2,3.9-3.38C219.29,511.79,219.54,511.27,219.77,511.32Z" transform="translate(-182.14 -126.94)"/><path class="cls-12" d="M282.73,554c-6,3.37-5.71.38-3.64,3.49-3,1.66-7.5,3-13.22,8.11-2.66,1.28-1.49-.38-7.74-2.36-8.34-.34-23.44-5.59-18.74-17-7.22-5.93-6.77-9.57-1.28-19.13-2.64-2.19,3.64-5.69,2-7.72a32.74,32.74,0,0,1,23.34-20.62c4.84,4.4,8.29,4.71,6.46,4,.41,2.77,9.88,3,7.78,9.76,1.72-1.09,10.28,5.93,7,12.54,6.05,5-2.91,14.38-4.33,16,2.58,3.12,3.24,13,1.07,17.47C280.51,556.67,281,553.64,282.73,554Zm-22.09-9.89c-1.2,1.41-1,.27-.8,1.24,1.68-.5,3.12-3.44,4.18-7.49,1.14-3.21,2.69-7,2.61-9.92-.9-2.09-1.36-4.17-.85-5.22-1.89-.22-3.38,1.75-4.45,3.26-2.43,3.07-2.89,5.48-4.41,9.16C254.75,541.17,256.75,543.6,260.64,544.12Z" transform="translate(-182.14 -126.94)"/><path class="cls-12" d="M333.72,559.37c-5.22,3.86-5.12.8-3.25,3.78-.49-1.81-1.61-2.57-2.94,1.71,1.35.26,6.25-1.61,4.86-1.92-6.75,9.17-12.67,11.8-13.53,11.34-7.94,1.64-11.26,4.71-12.35,1.23-8.58.32-8-3-13.51-5.64-7.82-8-6.41-20.09-5.79-30.28,4.81-.34,8.94-5.3,9-11.54-1.45-2.34,6.63-8.51,5.56-8.24.54-6.33,8.85-4.63,8.46-2.53,7.61-5,2.82-2,5.69-4.28,6.61-.25,11.79,6.92,15,9.29,1.88.52-.52,2.41,2.58,8.43-3,1.89,3.24.56,2.26,3.45.57,3-3.48,3.6-1.42,9.86-6.34-5-6.4-.5-9.89-.23-4-4.42-7.87-6.22-5.86-8.2-1.06,1.37-1.05,2,.77-2.77-8.15,2.28-2.24,2-6.83-1.38,4,1.72,4.79,1.87-2.39,1-2.37,8.13,2.65,17.69-.92,18.67-2.4,2.9.64,2.81.93,3.76-1.59,4.19-.9,2.75-2.13,3.74,5.75,2.63,2.81-.12,5.6-2.31,10.88-1,9.05-6.37,8.55-2.79,1.71-2.9,6.5,1.51,4.32,3.5C329,554.92,332.88,555.63,333.72,559.37Z" transform="translate(-182.14 -126.94)"/><path class="cls-12" d="M349.19,524.58c-5.5,3.7-5.53.62-3.44,3.56,2.28-3.81,4.27-5.45,6.65-1,4.45.34,11.76-1.06,11.53-.53-4.2,3.44-5.72,4.24-.05,5.65-5.18,3.42-5.3,9.87-3.38,11.5-3.21,4,2.35,4.24.68,5.48-2.11-.33,2.18-1.54.37-4,5,3.74,8.22,2.65,6,.16-3.42-.82,2.58-7.28-1.66-8.6-1.17-7.34,7.86-6.9,8.13-5.61,5.51-4.81-1.15-1.6,1-4.22,5.26-.87,9.35,4.76,10.61,4.94,1.28-.84-2.18.32.59,5.92-3.93.9,2.78-1.7,2.39-.1,1.33,2.63-2.19,3.31,1.87,9.63-6.14.53-4.2,9.5-5.92,13.69-1.7,3.83-5.55,12.66-5,23.5-2.4,4.25-5.09,6.93-7.62,3.35-11.82,3.34-6.72,2.75-12.86-1.63,2.87-.06,4.09-3.47-3.94-7.26.67-3.38,8.79-1,5.55-2.27-1.54-.65,2.42-3.7,3.05-5-1.41,1.36-2.11-2-6.13-1.94,3.73,2-3.79.42-6.1.87,6.79,1.58,1-1.7-.85,3.11.83-2,5.54,3.91,2.21,8-.75-1.79-1,3.11,1.42,3.07-7.11,1.3-.06,1.41-8.53.78-.59-.9,2.94,3.27.26-1.26-9-1.54-4.11-2.3-8.25-5.8.56.66-3,.54-3.79-3.35,3.43-6.32-2-10.29-.38-12.29,4-4.57,6-11,8.11-16.67C343.64,535.13,344.83,526.84,349.19,524.58Z" transform="translate(-182.14 -126.94)"/><path class="cls-12" d="M417.88,542c-3.16,6.39-3.36,6-2.71,11.7a22.4,22.4,0,0,0-2.12,6.89c-.61,9.89.17,16.3-3.25,23.88-4.63,7.31-8.6,8.64-9.61,6.68-3.58,1.31-4.17,4.15-3,1.3-7.53,1.05-7.83-3.4-9.38-7.08-1.29-8.65,1.15-17.68.94-26.14a32.15,32.15,0,0,0,6.53-15.94c-1.91,2.21,4-5.84,1.31-2.07,2.74-7.77,10.22-7.47,13.52-3.82,3.82-4.72.55-.58,1.38-3.05,3.15-.56,5.12,5.7,5.69,7.39C416.76,540,417,541.93,417.88,542Z" transform="translate(-182.14 -126.94)"/><path class="cls-12" d="M450.16,564.67c-3,.9-3.4.09-1.81.89.56,1.32.14,3.12-.47,6.43.83.64,3.76.82,2.62,1.33-3.86,1.71-5.56,2-2,1.91-3.19,1.07-3.16,2.51-2.53,2.21-4.72.81-5.46.6-11.7.27-2.36-.26-2.35-.7-7.72-1.77.57.79.16.61-3.11.2-3.53-.48-1.09-1.49-4-.83-2.32-1.89,1.73-1.75-.29-2.08,2.71-1.35-2.21-1.54-2.65-3.45,2.1-1,4.36-.17,4.83-.69-.4-3.41-2-5.64,2-5.63-.62-1.14,5.83-2.14,8.86-1.63,4.93.65,5.34.35,9.43,1.46-2.17-1.64,1.3-.37,2.23,0C445.08,562.71,448.13,563.59,450.16,564.67Z" transform="translate(-182.14 -126.94)"/><path class="cls-12" d="M504.08,549.66c-4.81,4.53-5.12,1.45-2.68,4.09-.67-1.16-1.93-1.07-2.65,4.1,1.2,2.16,5.26,1.2,2.44,2.18-5.68,2.88-10,1.86-8.09-.28-8.12,2-9.05,5.3-6.66,2.57-3.3,2.58,1.51,6.46-.64,18.29-2.48,2,.83,2.57-2.45,2.83,4.43,8.17,6,11.67,1.55,14.29-5.35,6.11-2.67,4.48-10.69,8.07-7.74-5.11-4-5.18-9.1-5.29,3.12-7.38-5.56-7-5.82-14.74,3.31-1,7,1.44,8.39-4.6-1.17-1.79-4.68-12.31-2.05-9.92-3.54-2.83,3.32-9.61,3.5-11.15.83.84-3.18,0,.7,4.21-7.54-6.6-6.49-3.73-9.34-3.83-3.1-4.87-5.62-5.5-1.67-5.37-2-.63-2.25-1.43-.77-7.14-8,.9.67-1.94-.23-6,9.29-.61,16.71-2.59,15.41-1.88,3.73-2.34,14.79,1.24,14.93,3.37-.17,2.45,5.64,1.57,9.6,2.52C499.75,550.56,502,547,504.08,549.66Z" transform="translate(-182.14 -126.94)"/><path class="cls-12" d="M554.53,596.56c-5,4.91-5.55,1.82-2.77,4.43a13.9,13.9,0,0,0-8,5.83c.09-.25,3.68-3.32.53-3.6-8.22,2.62-12.74.48-8.33-3.68-5.62.17-5,2.24-2.64-1.38-4,.83.49-2.83-2.34-3.47-5-.19-4.14-1.87-10.34-3.46,5.2,3.83,7.9,4,4.93,4.71-3.48,4.71,1.16,3.25-5,9.8-4.42-2.49.75,0-5.65,3.14,2.92-5.48-7.31-1.41-10.37-5.08,3.45-1.63,7,3.44,7.71,3.26-6-4.22-13.23-10.2-9.9-16.58-4.21-.14,2.37-5.94,2.08-7.32,2.15-7.47-.42-14.62,5.83-15-4.17-13,2.12-15.42,5.4-19.77,2.49-7.84,6.2-8.86,17.11-7.23,5.63,1.93,10.74,5.31,15,5.24-6.32,7.22,1.86,8.78-2.42,9.5,6.15,8.52,11.48,20.59,2.65,29.42C548.16,587.51,553.64,592.28,554.53,596.56Zm-24-19c0-2.68-.13-10.34-.53-18.57-.44-1-1.15-1.19-2,.72-.71,4.26-.83,6.83-1.4,9.53-1.27,5.73-1.78,8-1,7.78-.19,1.16.38,2.45,1.32,1.45-.12.73.94,0,1.56.38C529.14,578.67,530.22,577.54,530.56,577.53Z" transform="translate(-182.14 -126.94)"/><path class="cls-12" d="M622.75,591.52c-5.54,7.79-6.94,6.94-4.54,10.84-2.18-.58-5.17-.52-7.06,3.84,1-.37,5.79-3.48,2.29-3.23-7.59,3.25-11.19,2.16-4.3-1.06-7.66,2.08-7.93,4-6.81-1.16-5.59.38-.86-4.23-4.35-5.59-3.34-1,.87-5.55-2.77-11.24,6.77-.43,9.75-3.67,5.6-5.6-4.12,3.48,1.22,2-5.44,10.48-5.29.9,2.27,5-2.81,9.43,4.09-4.85-6.56.32-9-2.5,3.1-1.79,7.06,2.68,6.89,1.91-4.83-4.5-13.39-10.15-11.57-16.5-5.3,2,2-1.33,1.41.81,1.6,1.41-2.75,3.46,4.12,11.36-7.69-2.75-3.56,2.62-5.14,5.16-1.79-1.4-4.11,1.45.31,4.44-2.89,2.8-4.39,4.59-5,.68-12.83,4.92-6.51,2.63-15-1.66,3.77-2.93,4.69-6.76-5.79-7.25-.62-5,9.14-6.08,4.69-9.35-2.29-2.56,2.09-12.51,3.39-24.19-.68-.92.1-6.68-.68-8.64,8.62-1.41,3.9-3.93,6.25-5.06,14.11-1.71,16.65,4.46,18.25,17.17.36-5.4,7.49-5.53,5.32-7.21.24-8.9,3.49-8.8,9.23-11.64-4.52.6,6.89-2.43.69-1.84,3.22-1.31,12.77,2.41,13.35.2-5.36,2.31,4,3.38,1.35,5.48,3.17,3.76,1.13,9.91.76,13.8,3.89.43-2.36,5.87-.49,11.82,4.43,9.5,5.82,15.32,7.22,19.44C622.66,593.4,620.56,591.72,622.75,591.52Z" transform="translate(-182.14 -126.94)"/><path class="cls-12" d="M676.42,590.91c-4.41,5.42-5.32,2.41-2.28,4.71a13.88,13.88,0,0,0-7.3,6.66c.07-.26,3.31-3.7.14-3.64-7.89,3.49-12.62,1.86-8.69-2.76-5.57.78-4.7,2.77-2.77-1.09-3.86,1.26.18-2.86-2.7-3.19-5,.35-4.32-1.42-10.66-2.32,5.58,3.24,8.29,3.17,5.41,4.15-3,5.05,1.5,3.1-3.88,10.27-4.67-2,.75-.05-5.28,3.74,2.31-5.77-7.43-.61-10.86-3.93,3.26-2,7.36,2.66,8,2.41-6.47-3.55-14.26-8.72-11.64-15.41-4.2.31,1.71-6.16,1.28-7.51,1.33-7.66-2-14.48,4.17-15.54-5.56-12.46.44-15.57,3.23-20.24,1.63-8.07,5.2-9.48,16.24-9,5.81,1.31,11.25,4.11,15.45,3.59-5.51,7.85,2.8,8.52-1.38,9.7,7.05,7.8,13.66,19.23,5.83,29C669.11,582.61,675.08,586.75,676.42,590.91Zm-25.91-16.33c-.31-2.65-1.24-10.26-2.53-18.4-.55-.95-1.27-1-1.93.93-.24,4.32-.08,6.89-.36,9.63-.64,5.83-.89,8.2-.16,7.85-.06,1.17.64,2.39,1.47,1.3,0,.74.94-.08,1.59.2C649.22,575.88,650.17,574.64,650.51,574.58Z" transform="translate(-182.14 -126.94)"/><path class="cls-12" d="M719.92,576.39c-3.44,5.43-4.3,2.4-1.6,4.6.86-2.57.42-4.36.47-1.73,1.1-1.24,4.49-5.52,2.58-6-4.63,2.94-8.65,1-7.3-4.1-6.12,1.13-6.55,2.93-6.21-1.38-4.15,1.36-2.21-2.92-6-3.39-4.37-2.72-3.09-8.1-6.49-12.78,4.07-2.33,7.52-7.79,8.48-12,1.48-1.89,10.06-9.09,13.12-5.08.6-4.56,10.14-3.93,11.28.92,4.44-5.23.87,2.08,2.1,1.78,3.47-1.08,8.11,4.43,8.85,5.22-1.13-.23-5.7,2-4,5.92-3.35,1.2,1.09-4.22.82-3.38-.17,3.09-5,4.51-2,8-7-5-4.69-2.36-6.61-1.57-3.27-3.83-5.11-4.23-1.31-6-.63.86-1,1.72-2.28-2.17-7,6-2,4.22-7.16,3,3.73,1.3,4.93.71-1.63,3.54,0-.93,8.35,1.88,7.43,4.78,5.75,5.5,12.36,4.91,13.94,5.1,4.47,6.1,6.6,7.12,5.57,12.23,5.07,1.52-.19,3-.74,4.71,8,4.82-.9,8-9.52,16.83-3.45-1.32-1.45,2.27-6.75,5.11-2.12-3.26-1.56.26-.18-1.54-5,2,1.37-1.38-4.48-.18-11-1.35-11.66-1.81-14.41-11.61-5.85-.41-.5-2.94-3.35-4.1,1.87,1.25.23,4.34-.31,4.22,2.14-5.1-2.09-4.52,0-3.62,3.56-.38,5-2.41,6.72-4.18.06-1.34,2.39-.74-2.49,1.14,9.61,3,7.86,4.14,13.06,3.52-4.66.12-.88.59-3.08-2.21C717.12,577.1,718.4,576.69,719.92,576.39Z" transform="translate(-182.14 -126.94)"/><path class="cls-12" d="M789.76,527.32c-3.47,5.65-4.58,2.76-1.52,4.66-1-.94-2.15-.52-1.5,4.65,1.75,1.77,5.43-.22,3,1.47-4.75,4.27-9.18,4.42-7.92,1.86-7.35,4-7.37,7.5-5.77,4.23-2.52,3.36,3.16,5.84,4.18,17.82-1.87,2.58,1.49,2.26-1.63,3.37,6.45,6.72,8.94,9.67,5.27,13.38-3.58,7.31-1.42,5-8.24,10.6-8.84-2.89-5.27-3.93-10.19-2.71,1.07-7.94-7.23-5.3-9.51-12.68,2.93-1.86,7.16-.46,6.91-6.65-1.6-1.43-7.77-10.65-4.59-9-4.18-1.8.68-10.15.45-11.68,1,.59-3.08.85,1.78,3.88-9-4.39-7.25-1.89-10-1.24-4.28-3.89-6.88-3.83-3-4.74-2.09-.1-2.56-.79-2.63-6.69-7.53,3,.14-2.05-1.81-5.74,8.83-3,15.49-6.89,14.43-5.86,3-3.24,14.64-2.71,15.34-.68.48,2.4,5.88,0,10-.11C785.81,529.34,787,525.31,789.76,527.32Z" transform="translate(-182.14 -126.94)"/><path class="cls-12" d="M848,553c-3.55,5.85-4.8,3.12-1.47,4.81-1.77,2.91-5.05,6.34-7.56,13.54-1.7,2.42-1.48.4-7.89,1.73-7.44,3.78-23.12,6.54-24.58-5.68-9.16-1.66-10.53-5-10.43-16.07-3.36-.62.39-6.75-2-7.73a32.69,32.69,0,0,1,10.21-29.38c6.35,1.47,9.51.06,7.57.34,1.71,2.23,10.08-2.19,11.54,4.73,1-1.8,11.86.15,12.19,7.53,7.73,1.42,4.49,14,4.06,16.12,3.78,1.47,9.19,9.78,9.48,14.72C847.41,556.38,846.3,553.53,848,553ZM824,555.14c-.36,1.82-.71.72-.09,1.47,1.22-1.25,1-4.52,0-8.57-.58-3.36-1.09-7.42-2.57-9.93-1.81-1.38-3.23-3-3.29-4.14-1.76.74-2.09,3.18-2.28,5-.62,3.87.16,6.19.63,10.14C817.4,555.44,820.32,556.59,824,555.14Z" transform="translate(-182.14 -126.94)"/><path class="cls-12" d="M902.93,542.79c-3.08,6-4.65,3.3-1.31,4.89-1.77.2-4.15,1.71-4.73,7.73-.53,1.74,1.12-.9-2.79.33-8.73,6-17.32,2.27-20.07-10-3,4.12-.45,7.71,1.24,5-1.45,6.1,2.27,5.64-1.1,10.16-4.62,3.11-4.28,2-10.43,2.05,4.61,1.91,5.86.88,2,1.54-5.89,3.5-4.39-1.83-8.82,2.59-5.52-4.65.49-8-2.54-8,2.48-6.3-4.61-2.85-6.24-5.42,2.44-2.62,6.2-3.4,4.62-12.74-4.1-11.45-10.16-18.13-7.43-22.26-4-2.34,2.48-11.68,6.72-13.59,3.45-1,4.24-2.42,16.45-2.7.52-6.1,10.56-3.1,14.33,1.85,1.66.85,3.53,6,9.82,9.82,1.08,6,1.64,11-.1,10.5-6.5,7.61-1.54,6.26-9,8.58,12.68,3.65,18.72,5.82,12.54,13.11C895.56,544,901.2,542.77,902.93,542.79Zm-35.59-25.14c-.43,1.19-.77.61-.22,1-.6-.36-1.13-.46-1.18.43,0-.11-.2-.38-1.66.75-.77,1-.89,2.16.54,3.66a24.91,24.91,0,0,0,2.37,8.22,12,12,0,0,0,4.2-3.89c.65-1.52,1.34-3.52.36-5.07C872.14,521.3,870.14,519.1,867.34,517.65Z" transform="translate(-182.14 -126.94)"/><path class="cls-12" d="M933.64,500.81c-1.36,6.44-2.47,4.45.58,6.92a23.72,23.72,0,0,0-2.7,9.65c-.6,1.52-.08-1.24-3.78-.47-3.42,3.86-6.3,3.39-4.1-.41-2.22,3.31.12,7.44,1.28,6.62-1.16,4.11,2.45,1.78,2.23,4.17.06-.56,3.68-3.7,2.28-4.31,7.23,1.62,10.59,1.33,9.22,3.75-.51,5.32,2.11,2.86-.59,10.89-4.35-.61,0,1.22-3.53,7.58-.82-4-8,4.16-13.12,2.8-1.16-1.47.36,2.63-2,2-2.73-1.38-8.51-1.14-8.48-1.46-6.23-1.07-6.53-13.79-10.2-23.89-.92-6-5.52-13-2.14-19-7.33-9.09-3.59-10.41-2.43-11.55-1.93-3.37,10.16-7.94,14.18-8,2.08.61,4.76.78,6.14-3.9-.28,5.24,6.94,2.49,3.95,3.34,4.3.17,5.6-.82.43,3,0-.41,6.46,1.83,3.17,6.08-1.92,4.13-2.44,2.66-5.3,3-.33,3.24-2,1.14-3.92,2.61,4.21.76-.39,3-.69,4.73,6.15-.56,1.24-1.27,1.72,2.67-.51-2.41,5-.55,4.52,2-1-4.62,2.48-2.67,6.28-5.55C925.39,505.87,929.78,499.66,933.64,500.81Z" transform="translate(-182.14 -126.94)"/><path class="cls-7" d="M242.63,494.26c-5.7,3.25-5.41.21-3.74,3.36,1.21,2.9.29,6.32-2.62,14.29,0,4.55,2.42,6.75-3.48,9.13-9.36,3.62-17.81,2.06-21.2-.7-4.86,1.31-4.94,6.1-2.13,6.08-3.89,3.55.75,4.44-2.4,5.35s-.69,2.14-5,1.3c2.85,5.36,4,6.11-.7,5.13-5.78,1.55-1.9-.68-9.54,1.25-4.32-6.08-.07-4.21-5.23-4.31,4.25-6-4.79-6.73-3.84-12.59,4.08-5.87,7.17-5.31,9.77-10.62-.65-2,.57-19.58,2.45-16.62-3.74-1.15,4-5.38,4.67-7.94,2.17-1.83.44-5.76,5.16-2.23-1.72-9.81,2.23-6.88,3.26-6.29,5.35-3.41,8.64-2.06,16.47,1.89,7.9,4.45,13.5,10.85,17.83,14.67C233.48,497.73,241,493.85,242.63,494.26Zm-22.86,10.06a10.61,10.61,0,0,1,1.45-2.34c.93-3.24-.58-5.65-4.63-6.42-.74,1.95-.57,3-1.12,4-1.37,1.88-1.91,2.66-1.16,3.05a11.5,11.5,0,0,0-1.46,5.46,8.05,8.05,0,0,0,2.11-.78c1.46-.94,3.33-2,3.9-3.38C219.29,504.79,219.54,504.27,219.77,504.32Z" transform="translate(-182.14 -126.94)"/><path class="cls-7" d="M282.73,547c-6,3.37-5.71.38-3.64,3.49-3,1.66-7.5,3-13.22,8.11-2.66,1.28-1.49-.38-7.74-2.36-8.34-.34-23.44-5.59-18.74-17-7.22-5.93-6.77-9.57-1.28-19.13-2.64-2.19,3.64-5.69,2-7.72a32.74,32.74,0,0,1,23.34-20.62c4.84,4.4,8.29,4.71,6.46,4,.41,2.77,9.88,3,7.78,9.76,1.72-1.09,10.28,5.93,7,12.54,6.05,5-2.91,14.38-4.33,16,2.58,3.12,3.24,13,1.07,17.47C280.51,549.67,281,546.64,282.73,547Zm-22.09-9.89c-1.2,1.41-1,.27-.8,1.24,1.68-.5,3.12-3.44,4.18-7.49,1.14-3.21,2.69-7,2.61-9.92-.9-2.09-1.36-4.17-.85-5.22-1.89-.22-3.38,1.75-4.45,3.26-2.43,3.07-2.89,5.48-4.41,9.16C254.75,534.17,256.75,536.6,260.64,537.12Z" transform="translate(-182.14 -126.94)"/><path class="cls-7" d="M333.72,552.37c-5.22,3.86-5.12.8-3.25,3.78-.49-1.81-1.61-2.57-2.94,1.71,1.35.26,6.25-1.61,4.86-1.92-6.75,9.17-12.67,11.8-13.53,11.34-7.94,1.64-11.26,4.71-12.35,1.23-8.58.32-8-3-13.51-5.64-7.82-8-6.41-20.09-5.79-30.28,4.81-.34,8.94-5.3,9-11.54-1.45-2.34,6.63-8.51,5.56-8.24.54-6.33,8.85-4.63,8.46-2.53,7.61-5,2.82-2,5.69-4.28,6.61-.25,11.79,6.92,15,9.29,1.88.52-.52,2.41,2.58,8.43-3,1.89,3.24.56,2.26,3.45.57,3-3.48,3.6-1.42,9.86-6.34-5-6.4-.5-9.89-.23-4-4.42-7.87-6.22-5.86-8.2-1.06,1.37-1.05,2,.77-2.77-8.15,2.28-2.24,2-6.83-1.38,4,1.72,4.79,1.87-2.39,1-2.37,8.13,2.65,17.69-.92,18.67-2.4,2.9.64,2.81.93,3.76-1.59,4.19-.9,2.75-2.13,3.74,5.75,2.63,2.81-.12,5.6-2.31,10.88-1,9.05-6.37,8.55-2.79,1.71-2.9,6.5,1.51,4.32,3.5C329,547.92,332.88,548.63,333.72,552.37Z" transform="translate(-182.14 -126.94)"/><path class="cls-7" d="M349.19,517.58c-5.5,3.7-5.53.62-3.44,3.56,2.28-3.81,4.27-5.45,6.65-1,4.45.34,11.76-1.06,11.53-.53-4.2,3.44-5.72,4.24-.05,5.65-5.18,3.42-5.3,9.87-3.38,11.5-3.21,4,2.35,4.24.68,5.48-2.11-.33,2.18-1.54.37-4,5,3.74,8.22,2.65,6,.16-3.42-.82,2.58-7.28-1.66-8.6-1.17-7.34,7.86-6.9,8.13-5.61,5.51-4.81-1.15-1.6,1-4.22,5.26-.87,9.35,4.76,10.61,4.94,1.28-.84-2.18.32.59,5.92-3.93.9,2.78-1.7,2.39-.1,1.33,2.63-2.19,3.31,1.87,9.63-6.14.53-4.2,9.5-5.92,13.69-1.7,3.83-5.55,12.66-5,23.5-2.4,4.25-5.09,6.93-7.62,3.35-11.82,3.34-6.72,2.75-12.86-1.63,2.87-.06,4.09-3.47-3.94-7.26.67-3.38,8.79-1,5.55-2.27-1.54-.65,2.42-3.7,3.05-5-1.41,1.36-2.11-2-6.13-1.94,3.73,2-3.79.42-6.1.87,6.79,1.58,1-1.7-.85,3.11.83-2,5.54,3.91,2.21,8-.75-1.79-1,3.11,1.42,3.07-7.11,1.3-.06,1.41-8.53.78-.59-.9,2.94,3.27.26-1.26-9-1.54-4.11-2.3-8.25-5.8.56.66-3,.54-3.79-3.35,3.43-6.32-2-10.29-.38-12.29,4-4.57,6-11,8.11-16.67C343.64,528.13,344.83,519.84,349.19,517.58Z" transform="translate(-182.14 -126.94)"/><path class="cls-7" d="M417.88,535c-3.16,6.39-3.36,6-2.71,11.7a22.4,22.4,0,0,0-2.12,6.89c-.61,9.89.17,16.3-3.25,23.88-4.63,7.31-8.6,8.64-9.61,6.68-3.58,1.31-4.17,4.15-3,1.3-7.53,1.05-7.83-3.4-9.38-7.08-1.29-8.65,1.15-17.68.94-26.14a32.15,32.15,0,0,0,6.53-15.94c-1.91,2.21,4-5.84,1.31-2.07,2.74-7.77,10.22-7.47,13.52-3.82,3.82-4.72.55-.58,1.38-3.05,3.15-.56,5.12,5.7,5.69,7.39C416.76,533,417,534.93,417.88,535Z" transform="translate(-182.14 -126.94)"/><path class="cls-7" d="M450.16,557.67c-3,.9-3.4.09-1.81.89.56,1.32.14,3.12-.47,6.43.83.64,3.76.82,2.62,1.33-3.86,1.71-5.56,2-2,1.91-3.19,1.07-3.16,2.51-2.53,2.21-4.72.81-5.46.6-11.7.27-2.36-.26-2.35-.7-7.72-1.77.57.79.16.61-3.11.2-3.53-.48-1.09-1.49-4-.83-2.32-1.89,1.73-1.75-.29-2.08,2.71-1.35-2.21-1.54-2.65-3.45,2.1-1,4.36-.17,4.83-.69-.4-3.41-2-5.64,2-5.63-.62-1.14,5.83-2.14,8.86-1.63,4.93.65,5.34.35,9.43,1.46-2.17-1.64,1.3-.37,2.23,0C445.08,555.71,448.13,556.59,450.16,557.67Z" transform="translate(-182.14 -126.94)"/><path class="cls-7" d="M504.08,542.66c-4.81,4.53-5.12,1.45-2.68,4.09-.67-1.16-1.93-1.07-2.65,4.1,1.2,2.16,5.26,1.2,2.44,2.18-5.68,2.88-10,1.86-8.09-.28-8.12,2-9.05,5.3-6.66,2.57-3.3,2.58,1.51,6.46-.64,18.29-2.48,2,.83,2.57-2.45,2.83,4.43,8.17,6,11.67,1.55,14.29-5.35,6.11-2.67,4.48-10.69,8.07-7.74-5.11-4-5.18-9.1-5.29,3.12-7.38-5.56-7-5.82-14.74,3.31-1,7,1.44,8.39-4.6-1.17-1.79-4.68-12.31-2.05-9.92-3.54-2.83,3.32-9.61,3.5-11.15.83.84-3.18,0,.7,4.21-7.54-6.6-6.49-3.73-9.34-3.83-3.1-4.87-5.62-5.5-1.67-5.37-2-.63-2.25-1.43-.77-7.14-8,.9.67-1.94-.23-6,9.29-.61,16.71-2.59,15.41-1.88,3.73-2.34,14.79,1.24,14.93,3.37-.17,2.45,5.64,1.57,9.6,2.52C499.75,543.56,502,540,504.08,542.66Z" transform="translate(-182.14 -126.94)"/><path class="cls-7" d="M554.53,589.56c-5,4.91-5.55,1.82-2.77,4.43a13.9,13.9,0,0,0-8,5.83c.09-.25,3.68-3.32.53-3.6-8.22,2.62-12.74.48-8.33-3.68-5.62.17-5,2.24-2.64-1.38-4,.83.49-2.83-2.34-3.47-5-.19-4.14-1.87-10.34-3.46,5.2,3.83,7.9,4,4.93,4.71-3.48,4.71,1.16,3.25-5,9.8-4.42-2.49.75,0-5.65,3.14,2.92-5.48-7.31-1.41-10.37-5.08,3.45-1.63,7,3.44,7.71,3.26-6-4.22-13.23-10.2-9.9-16.58-4.21-.14,2.37-5.94,2.08-7.32,2.15-7.47-.42-14.62,5.83-15-4.17-13,2.12-15.42,5.4-19.77,2.49-7.84,6.2-8.86,17.11-7.23,5.63,1.93,10.74,5.31,15,5.24-6.32,7.22,1.86,8.78-2.42,9.5,6.15,8.52,11.48,20.59,2.65,29.42C548.16,580.51,553.64,585.28,554.53,589.56Zm-24-19c0-2.68-.13-10.34-.53-18.57-.44-1-1.15-1.19-2,.72-.71,4.26-.83,6.83-1.4,9.53-1.27,5.73-1.78,8-1,7.78-.19,1.16.38,2.45,1.32,1.45-.12.73.94,0,1.56.38C529.14,571.67,530.22,570.54,530.56,570.53Z" transform="translate(-182.14 -126.94)"/><path class="cls-7" d="M622.75,584.52c-5.54,7.79-6.94,6.94-4.54,10.84-2.18-.58-5.17-.52-7.06,3.84,1-.37,5.79-3.48,2.29-3.23-7.59,3.25-11.19,2.16-4.3-1.06-7.66,2.08-7.93,4-6.81-1.16-5.59.38-.86-4.23-4.35-5.59-3.34-1,.87-5.55-2.77-11.24,6.77-.43,9.75-3.67,5.6-5.6-4.12,3.48,1.22,2-5.44,10.48-5.29.9,2.27,5-2.81,9.43,4.09-4.85-6.56.32-9-2.5,3.1-1.79,7.06,2.68,6.89,1.91-4.83-4.5-13.39-10.15-11.57-16.5-5.3,2,2-1.33,1.41.81,1.6,1.41-2.75,3.46,4.12,11.36-7.69-2.75-3.56,2.62-5.14,5.16-1.79-1.4-4.11,1.45.31,4.44-2.89,2.8-4.39,4.59-5,.68-12.83,4.92-6.51,2.63-15-1.66,3.77-2.93,4.69-6.76-5.79-7.25-.62-5,9.14-6.08,4.69-9.35-2.29-2.56,2.09-12.51,3.39-24.19-.68-.92.1-6.68-.68-8.64,8.62-1.41,3.9-3.93,6.25-5.06,14.11-1.71,16.65,4.46,18.25,17.17.36-5.4,7.49-5.53,5.32-7.21.24-8.9,3.49-8.8,9.23-11.64-4.52.6,6.89-2.43.69-1.84,3.22-1.31,12.77,2.41,13.35.2-5.36,2.31,4,3.38,1.35,5.48,3.17,3.76,1.13,9.91.76,13.8,3.89.43-2.36,5.87-.49,11.82,4.43,9.5,5.82,15.32,7.22,19.44C622.66,586.4,620.56,584.72,622.75,584.52Z" transform="translate(-182.14 -126.94)"/><path class="cls-7" d="M676.42,583.91c-4.41,5.42-5.32,2.41-2.28,4.71a13.88,13.88,0,0,0-7.3,6.66c.07-.26,3.31-3.7.14-3.64-7.89,3.49-12.62,1.86-8.69-2.76-5.57.78-4.7,2.77-2.77-1.09-3.86,1.26.18-2.86-2.7-3.19-5,.35-4.32-1.42-10.66-2.32,5.58,3.24,8.29,3.17,5.41,4.15-3,5.05,1.5,3.1-3.88,10.27-4.67-2,.75-.05-5.28,3.74,2.31-5.77-7.43-.61-10.86-3.93,3.26-2,7.36,2.66,8,2.41-6.47-3.55-14.26-8.72-11.64-15.41-4.2.31,1.71-6.16,1.28-7.51,1.33-7.66-2-14.48,4.17-15.54-5.56-12.46.44-15.57,3.23-20.24,1.63-8.07,5.2-9.48,16.24-9,5.81,1.31,11.25,4.11,15.45,3.59-5.51,7.85,2.8,8.52-1.38,9.7,7.05,7.8,13.66,19.23,5.83,29C669.11,575.61,675.08,579.75,676.42,583.91Zm-25.91-16.33c-.31-2.65-1.24-10.26-2.53-18.4-.55-.95-1.27-1-1.93.93-.24,4.32-.08,6.89-.36,9.63-.64,5.83-.89,8.2-.16,7.85-.06,1.17.64,2.39,1.47,1.3,0,.74.94-.08,1.59.2C649.22,568.88,650.17,567.64,650.51,567.58Z" transform="translate(-182.14 -126.94)"/><path class="cls-7" d="M719.92,569.39c-3.44,5.43-4.3,2.4-1.6,4.6.86-2.57.42-4.36.47-1.73,1.1-1.24,4.49-5.52,2.58-6-4.63,2.94-8.65,1-7.3-4.1-6.12,1.13-6.55,2.93-6.21-1.38-4.15,1.36-2.21-2.92-6-3.39-4.37-2.72-3.09-8.1-6.49-12.78,4.07-2.33,7.52-7.79,8.48-12,1.48-1.89,10.06-9.09,13.12-5.08.6-4.56,10.14-3.93,11.28.92,4.44-5.23.87,2.08,2.1,1.78,3.47-1.08,8.11,4.43,8.85,5.22-1.13-.23-5.7,2-4,5.92-3.35,1.2,1.09-4.22.82-3.38-.17,3.09-5,4.51-2,8-7-5-4.69-2.36-6.61-1.57-3.27-3.83-5.11-4.23-1.31-6-.63.86-1,1.72-2.28-2.17-7,6-2,4.22-7.16,3,3.73,1.3,4.93.71-1.63,3.54,0-.93,8.35,1.88,7.43,4.78,5.75,5.5,12.36,4.91,13.94,5.1,4.47,6.1,6.6,7.12,5.57,12.23,5.07,1.52-.19,3-.74,4.71,8,4.82-.9,8-9.52,16.83-3.45-1.32-1.45,2.27-6.75,5.11-2.12-3.26-1.56.26-.18-1.54-5,2,1.37-1.38-4.48-.18-11-1.35-11.66-1.81-14.41-11.61-5.85-.41-.5-2.94-3.35-4.1,1.87,1.25.23,4.34-.31,4.22,2.14-5.1-2.09-4.52,0-3.62,3.56-.38,5-2.41,6.72-4.18.06-1.34,2.39-.74-2.49,1.14,9.61,3,7.86,4.14,13.06,3.52-4.66.12-.88.59-3.08-2.21C717.12,570.1,718.4,569.69,719.92,569.39Z" transform="translate(-182.14 -126.94)"/><path class="cls-7" d="M789.76,520.32c-3.47,5.65-4.58,2.76-1.52,4.66-1-.94-2.15-.52-1.5,4.65,1.75,1.77,5.43-.22,3,1.47-4.75,4.27-9.18,4.42-7.92,1.86-7.35,4-7.37,7.5-5.77,4.23-2.52,3.36,3.16,5.84,4.18,17.82-1.87,2.58,1.49,2.26-1.63,3.37,6.45,6.72,8.94,9.67,5.27,13.38-3.58,7.31-1.42,5-8.24,10.6-8.84-2.89-5.27-3.93-10.19-2.71,1.07-7.94-7.23-5.3-9.51-12.68,2.93-1.86,7.16-.46,6.91-6.65-1.6-1.43-7.77-10.65-4.59-9-4.18-1.8.68-10.15.45-11.68,1,.59-3.08.85,1.78,3.88-9-4.39-7.25-1.89-10-1.24-4.28-3.89-6.88-3.83-3-4.74-2.09-.1-2.56-.79-2.63-6.69-7.53,3,.14-2.05-1.81-5.74,8.83-3,15.49-6.89,14.43-5.86,3-3.24,14.64-2.71,15.34-.68.48,2.4,5.88,0,10-.11C785.81,522.34,787,518.31,789.76,520.32Z" transform="translate(-182.14 -126.94)"/><path class="cls-7" d="M848,546c-3.55,5.85-4.8,3.12-1.47,4.81-1.77,2.91-5.05,6.34-7.56,13.54-1.7,2.42-1.48.4-7.89,1.73-7.44,3.78-23.12,6.54-24.58-5.68-9.16-1.66-10.53-5-10.43-16.07-3.36-.62.39-6.75-2-7.73a32.69,32.69,0,0,1,10.21-29.38c6.35,1.47,9.51.06,7.57.34,1.71,2.23,10.08-2.19,11.54,4.73,1-1.8,11.86.15,12.19,7.53,7.73,1.42,4.49,14,4.06,16.12,3.78,1.47,9.19,9.78,9.48,14.72C847.41,549.38,846.3,546.53,848,546ZM824,548.14c-.36,1.82-.71.72-.09,1.47,1.22-1.25,1-4.52,0-8.57-.58-3.36-1.09-7.42-2.57-9.93-1.81-1.38-3.23-3-3.29-4.14-1.76.74-2.09,3.18-2.28,5-.62,3.87.16,6.19.63,10.14C817.4,548.44,820.32,549.59,824,548.14Z" transform="translate(-182.14 -126.94)"/><path class="cls-7" d="M902.93,535.79c-3.08,6-4.65,3.3-1.31,4.89-1.77.2-4.15,1.71-4.73,7.73-.53,1.74,1.12-.9-2.79.33-8.73,6-17.32,2.27-20.07-10-3,4.12-.45,7.71,1.24,5-1.45,6.1,2.27,5.64-1.1,10.16-4.62,3.11-4.28,2-10.43,2.05,4.61,1.91,5.86.88,2,1.54-5.89,3.5-4.39-1.83-8.82,2.59-5.52-4.65.49-8-2.54-8,2.48-6.3-4.61-2.85-6.24-5.42,2.44-2.62,6.2-3.4,4.62-12.74-4.1-11.45-10.16-18.13-7.43-22.26-4-2.34,2.48-11.68,6.72-13.59,3.45-1,4.24-2.42,16.45-2.7.52-6.1,10.56-3.1,14.33,1.85,1.66.85,3.53,6,9.82,9.82,1.08,6,1.64,11-.1,10.5-6.5,7.61-1.54,6.26-9,8.58,12.68,3.65,18.72,5.82,12.54,13.11C895.56,537,901.2,535.77,902.93,535.79Zm-35.59-25.14c-.43,1.19-.77.61-.22,1-.6-.36-1.13-.46-1.18.43,0-.11-.2-.38-1.66.75-.77,1-.89,2.16.54,3.66a24.91,24.91,0,0,0,2.37,8.22,12,12,0,0,0,4.2-3.89c.65-1.52,1.34-3.52.36-5.07C872.14,514.3,870.14,512.1,867.34,510.65Z" transform="translate(-182.14 -126.94)"/><path class="cls-7" d="M933.64,493.81c-1.36,6.44-2.47,4.45.58,6.92a23.72,23.72,0,0,0-2.7,9.65c-.6,1.52-.08-1.24-3.78-.47-3.42,3.86-6.3,3.39-4.1-.41-2.22,3.31.12,7.44,1.28,6.62-1.16,4.11,2.45,1.78,2.23,4.17.06-.56,3.68-3.7,2.28-4.31,7.23,1.62,10.59,1.33,9.22,3.75-.51,5.32,2.11,2.86-.59,10.89-4.35-.61,0,1.22-3.53,7.58-.82-4-8,4.16-13.12,2.8-1.16-1.47.36,2.63-2,2-2.73-1.38-8.51-1.14-8.48-1.46-6.23-1.07-6.53-13.79-10.2-23.89-.92-6-5.52-13-2.14-19-7.33-9.09-3.59-10.41-2.43-11.55-1.93-3.37,10.16-7.94,14.18-8,2.08.61,4.76.78,6.14-3.9-.28,5.24,6.94,2.49,3.95,3.34,4.3.17,5.6-.82.43,3,0-.41,6.46,1.83,3.17,6.08-1.92,4.13-2.44,2.66-5.3,3-.33,3.24-2,1.14-3.92,2.61,4.21.76-.39,3-.69,4.73,6.15-.56,1.24-1.27,1.72,2.67-.51-2.41,5-.55,4.52,2-1-4.62,2.48-2.67,6.28-5.55C925.39,498.87,929.78,492.66,933.64,493.81Z" transform="translate(-182.14 -126.94)"/><path class="cls-34" d="M242.63,494.26c-5.7,3.25-5.41.21-3.74,3.36,1.21,2.9.29,6.32-2.62,14.29,0,4.55,2.42,6.75-3.48,9.13-9.36,3.62-17.81,2.06-21.2-.7-4.86,1.31-4.94,6.1-2.13,6.08-3.89,3.55.75,4.44-2.4,5.35s-.69,2.14-5,1.3c2.85,5.36,4,6.11-.7,5.13-5.78,1.55-1.9-.68-9.54,1.25-4.32-6.08-.07-4.21-5.23-4.31,4.25-6-4.79-6.73-3.84-12.59,4.08-5.87,7.17-5.31,9.77-10.62-.65-2,.57-19.58,2.45-16.62-3.74-1.15,4-5.38,4.67-7.94,2.17-1.83.44-5.76,5.16-2.23-1.72-9.81,2.23-6.88,3.26-6.29,5.35-3.41,8.64-2.06,16.47,1.89,7.9,4.45,13.5,10.85,17.83,14.67C233.48,497.73,241,493.85,242.63,494.26Zm-22.86,10.06a10.61,10.61,0,0,1,1.45-2.34c.93-3.24-.58-5.65-4.63-6.42-.74,1.95-.57,3-1.12,4-1.37,1.88-1.91,2.66-1.16,3.05a11.5,11.5,0,0,0-1.46,5.46,8.05,8.05,0,0,0,2.11-.78c1.46-.94,3.33-2,3.9-3.38C219.29,504.79,219.54,504.27,219.77,504.32Z" transform="translate(-182.14 -126.94)"/><path class="cls-35" d="M282.73,547c-6,3.37-5.71.38-3.64,3.49-3,1.66-7.5,3-13.22,8.11-2.66,1.28-1.49-.38-7.74-2.36-8.34-.34-23.44-5.59-18.74-17-7.22-5.93-6.77-9.57-1.28-19.13-2.64-2.19,3.64-5.69,2-7.72a32.74,32.74,0,0,1,23.34-20.62c4.84,4.4,8.29,4.71,6.46,4,.41,2.77,9.88,3,7.78,9.76,1.72-1.09,10.28,5.93,7,12.54,6.05,5-2.91,14.38-4.33,16,2.58,3.12,3.24,13,1.07,17.47C280.51,549.67,281,546.64,282.73,547Zm-22.09-9.89c-1.2,1.41-1,.27-.8,1.24,1.68-.5,3.12-3.44,4.18-7.49,1.14-3.21,2.69-7,2.61-9.92-.9-2.09-1.36-4.17-.85-5.22-1.89-.22-3.38,1.75-4.45,3.26-2.43,3.07-2.89,5.48-4.41,9.16C254.75,534.17,256.75,536.6,260.64,537.12Z" transform="translate(-182.14 -126.94)"/><path class="cls-36" d="M333.72,552.37c-5.22,3.86-5.12.8-3.25,3.78-.49-1.81-1.61-2.57-2.94,1.71,1.35.26,6.25-1.61,4.86-1.92-6.75,9.17-12.67,11.8-13.53,11.34-7.94,1.64-11.26,4.71-12.35,1.23-8.58.32-8-3-13.51-5.64-7.82-8-6.41-20.09-5.79-30.28,4.81-.34,8.94-5.3,9-11.54-1.45-2.34,6.63-8.51,5.56-8.24.54-6.33,8.85-4.63,8.46-2.53,7.61-5,2.82-2,5.69-4.28,6.61-.25,11.79,6.92,15,9.29,1.88.52-.52,2.41,2.58,8.43-3,1.89,3.24.56,2.26,3.45.57,3-3.48,3.6-1.42,9.86-6.34-5-6.4-.5-9.89-.23-4-4.42-7.87-6.22-5.86-8.2-1.06,1.37-1.05,2,.77-2.77-8.15,2.28-2.24,2-6.83-1.38,4,1.72,4.79,1.87-2.39,1-2.37,8.13,2.65,17.69-.92,18.67-2.4,2.9.64,2.81.93,3.76-1.59,4.19-.9,2.75-2.13,3.74,5.75,2.63,2.81-.12,5.6-2.31,10.88-1,9.05-6.37,8.55-2.79,1.71-2.9,6.5,1.51,4.32,3.5C329,547.92,332.88,548.63,333.72,552.37Z" transform="translate(-182.14 -126.94)"/><path class="cls-37" d="M349.19,517.58c-5.5,3.7-5.53.62-3.44,3.56,2.28-3.81,4.27-5.45,6.65-1,4.45.34,11.76-1.06,11.53-.53-4.2,3.44-5.72,4.24-.05,5.65-5.18,3.42-5.3,9.87-3.38,11.5-3.21,4,2.35,4.24.68,5.48-2.11-.33,2.18-1.54.37-4,5,3.74,8.22,2.65,6,.16-3.42-.82,2.58-7.28-1.66-8.6-1.17-7.34,7.86-6.9,8.13-5.61,5.51-4.81-1.15-1.6,1-4.22,5.26-.87,9.35,4.76,10.61,4.94,1.28-.84-2.18.32.59,5.92-3.93.9,2.78-1.7,2.39-.1,1.33,2.63-2.19,3.31,1.87,9.63-6.14.53-4.2,9.5-5.92,13.69-1.7,3.83-5.55,12.66-5,23.5-2.4,4.25-5.09,6.93-7.62,3.35-11.82,3.34-6.72,2.75-12.86-1.63,2.87-.06,4.09-3.47-3.94-7.26.67-3.38,8.79-1,5.55-2.27-1.54-.65,2.42-3.7,3.05-5-1.41,1.36-2.11-2-6.13-1.94,3.73,2-3.79.42-6.1.87,6.79,1.58,1-1.7-.85,3.11.83-2,5.54,3.91,2.21,8-.75-1.79-1,3.11,1.42,3.07-7.11,1.3-.06,1.41-8.53.78-.59-.9,2.94,3.27.26-1.26-9-1.54-4.11-2.3-8.25-5.8.56.66-3,.54-3.79-3.35,3.43-6.32-2-10.29-.38-12.29,4-4.57,6-11,8.11-16.67C343.64,528.13,344.83,519.84,349.19,517.58Z" transform="translate(-182.14 -126.94)"/><path class="cls-38" d="M417.88,535c-3.16,6.39-3.36,6-2.71,11.7a22.4,22.4,0,0,0-2.12,6.89c-.61,9.89.17,16.3-3.25,23.88-4.63,7.31-8.6,8.64-9.61,6.68-3.58,1.31-4.17,4.15-3,1.3-7.53,1.05-7.83-3.4-9.38-7.08-1.29-8.65,1.15-17.68.94-26.14a32.15,32.15,0,0,0,6.53-15.94c-1.91,2.21,4-5.84,1.31-2.07,2.74-7.77,10.22-7.47,13.52-3.82,3.82-4.72.55-.58,1.38-3.05,3.15-.56,5.12,5.7,5.69,7.39C416.76,533,417,534.93,417.88,535Z" transform="translate(-182.14 -126.94)"/><path class="cls-39" d="M450.16,557.67c-3,.9-3.4.09-1.81.89.56,1.32.14,3.12-.47,6.43.83.64,3.76.82,2.62,1.33-3.86,1.71-5.56,2-2,1.91-3.19,1.07-3.16,2.51-2.53,2.21-4.72.81-5.46.6-11.7.27-2.36-.26-2.35-.7-7.72-1.77.57.79.16.61-3.11.2-3.53-.48-1.09-1.49-4-.83-2.32-1.89,1.73-1.75-.29-2.08,2.71-1.35-2.21-1.54-2.65-3.45,2.1-1,4.36-.17,4.83-.69-.4-3.41-2-5.64,2-5.63-.62-1.14,5.83-2.14,8.86-1.63,4.93.65,5.34.35,9.43,1.46-2.17-1.64,1.3-.37,2.23,0C445.08,555.71,448.13,556.59,450.16,557.67Z" transform="translate(-182.14 -126.94)"/><path class="cls-40" d="M504.08,542.66c-4.81,4.53-5.12,1.45-2.68,4.09-.67-1.16-1.93-1.07-2.65,4.1,1.2,2.16,5.26,1.2,2.44,2.18-5.68,2.88-10,1.86-8.09-.28-8.12,2-9.05,5.3-6.66,2.57-3.3,2.58,1.51,6.46-.64,18.29-2.48,2,.83,2.57-2.45,2.83,4.43,8.17,6,11.67,1.55,14.29-5.35,6.11-2.67,4.48-10.69,8.07-7.74-5.11-4-5.18-9.1-5.29,3.12-7.38-5.56-7-5.82-14.74,3.31-1,7,1.44,8.39-4.6-1.17-1.79-4.68-12.31-2.05-9.92-3.54-2.83,3.32-9.61,3.5-11.15.83.84-3.18,0,.7,4.21-7.54-6.6-6.49-3.73-9.34-3.83-3.1-4.87-5.62-5.5-1.67-5.37-2-.63-2.25-1.43-.77-7.14-8,.9.67-1.94-.23-6,9.29-.61,16.71-2.59,15.41-1.88,3.73-2.34,14.79,1.24,14.93,3.37-.17,2.45,5.64,1.57,9.6,2.52C499.75,543.56,502,540,504.08,542.66Z" transform="translate(-182.14 -126.94)"/><path class="cls-41" d="M554.53,589.56c-5,4.91-5.55,1.82-2.77,4.43a13.9,13.9,0,0,0-8,5.83c.09-.25,3.68-3.32.53-3.6-8.22,2.62-12.74.48-8.33-3.68-5.62.17-5,2.24-2.64-1.38-4,.83.49-2.83-2.34-3.47-5-.19-4.14-1.87-10.34-3.46,5.2,3.83,7.9,4,4.93,4.71-3.48,4.71,1.16,3.25-5,9.8-4.42-2.49.75,0-5.65,3.14,2.92-5.48-7.31-1.41-10.37-5.08,3.45-1.63,7,3.44,7.71,3.26-6-4.22-13.23-10.2-9.9-16.58-4.21-.14,2.37-5.94,2.08-7.32,2.15-7.47-.42-14.62,5.83-15-4.17-13,2.12-15.42,5.4-19.77,2.49-7.84,6.2-8.86,17.11-7.23,5.63,1.93,10.74,5.31,15,5.24-6.32,7.22,1.86,8.78-2.42,9.5,6.15,8.52,11.48,20.59,2.65,29.42C548.16,580.51,553.64,585.28,554.53,589.56Zm-24-19c0-2.68-.13-10.34-.53-18.57-.44-1-1.15-1.19-2,.72-.71,4.26-.83,6.83-1.4,9.53-1.27,5.73-1.78,8-1,7.78-.19,1.16.38,2.45,1.32,1.45-.12.73.94,0,1.56.38C529.14,571.67,530.22,570.54,530.56,570.53Z" transform="translate(-182.14 -126.94)"/><path class="cls-42" d="M622.75,584.52c-5.54,7.79-6.94,6.94-4.54,10.84-2.18-.58-5.17-.52-7.06,3.84,1-.37,5.79-3.48,2.29-3.23-7.59,3.25-11.19,2.16-4.3-1.06-7.66,2.08-7.93,4-6.81-1.16-5.59.38-.86-4.23-4.35-5.59-3.34-1,.87-5.55-2.77-11.24,6.77-.43,9.75-3.67,5.6-5.6-4.12,3.48,1.22,2-5.44,10.48-5.29.9,2.27,5-2.81,9.43,4.09-4.85-6.56.32-9-2.5,3.1-1.79,7.06,2.68,6.89,1.91-4.83-4.5-13.39-10.15-11.57-16.5-5.3,2,2-1.33,1.41.81,1.6,1.41-2.75,3.46,4.12,11.36-7.69-2.75-3.56,2.62-5.14,5.16-1.79-1.4-4.11,1.45.31,4.44-2.89,2.8-4.39,4.59-5,.68-12.83,4.92-6.51,2.63-15-1.66,3.77-2.93,4.69-6.76-5.79-7.25-.62-5,9.14-6.08,4.69-9.35-2.29-2.56,2.09-12.51,3.39-24.19-.68-.92.1-6.68-.68-8.64,8.62-1.41,3.9-3.93,6.25-5.06,14.11-1.71,16.65,4.46,18.25,17.17.36-5.4,7.49-5.53,5.32-7.21.24-8.9,3.49-8.8,9.23-11.64-4.52.6,6.89-2.43.69-1.84,3.22-1.31,12.77,2.41,13.35.2-5.36,2.31,4,3.38,1.35,5.48,3.17,3.76,1.13,9.91.76,13.8,3.89.43-2.36,5.87-.49,11.82,4.43,9.5,5.82,15.32,7.22,19.44C622.66,586.4,620.56,584.72,622.75,584.52Z" transform="translate(-182.14 -126.94)"/><path class="cls-43" d="M676.42,583.91c-4.41,5.42-5.32,2.41-2.28,4.71a13.88,13.88,0,0,0-7.3,6.66c.07-.26,3.31-3.7.14-3.64-7.89,3.49-12.62,1.86-8.69-2.76-5.57.78-4.7,2.77-2.77-1.09-3.86,1.26.18-2.86-2.7-3.19-5,.35-4.32-1.42-10.66-2.32,5.58,3.24,8.29,3.17,5.41,4.15-3,5.05,1.5,3.1-3.88,10.27-4.67-2,.75-.05-5.28,3.74,2.31-5.77-7.43-.61-10.86-3.93,3.26-2,7.36,2.66,8,2.41-6.47-3.55-14.26-8.72-11.64-15.41-4.2.31,1.71-6.16,1.28-7.51,1.33-7.66-2-14.48,4.17-15.54-5.56-12.46.44-15.57,3.23-20.24,1.63-8.07,5.2-9.48,16.24-9,5.81,1.31,11.25,4.11,15.45,3.59-5.51,7.85,2.8,8.52-1.38,9.7,7.05,7.8,13.66,19.23,5.83,29C669.11,575.61,675.08,579.75,676.42,583.91Zm-25.91-16.33c-.31-2.65-1.24-10.26-2.53-18.4-.55-.95-1.27-1-1.93.93-.24,4.32-.08,6.89-.36,9.63-.64,5.83-.89,8.2-.16,7.85-.06,1.17.64,2.39,1.47,1.3,0,.74.94-.08,1.59.2C649.22,568.88,650.17,567.64,650.51,567.58Z" transform="translate(-182.14 -126.94)"/><path class="cls-44" d="M719.92,569.39c-3.44,5.43-4.3,2.4-1.6,4.6.86-2.57.42-4.36.47-1.73,1.1-1.24,4.49-5.52,2.58-6-4.63,2.94-8.65,1-7.3-4.1-6.12,1.13-6.55,2.93-6.21-1.38-4.15,1.36-2.21-2.92-6-3.39-4.37-2.72-3.09-8.1-6.49-12.78,4.07-2.33,7.52-7.79,8.48-12,1.48-1.89,10.06-9.09,13.12-5.08.6-4.56,10.14-3.93,11.28.92,4.44-5.23.87,2.08,2.1,1.78,3.47-1.08,8.11,4.43,8.85,5.22-1.13-.23-5.7,2-4,5.92-3.35,1.2,1.09-4.22.82-3.38-.17,3.09-5,4.51-2,8-7-5-4.69-2.36-6.61-1.57-3.27-3.83-5.11-4.23-1.31-6-.63.86-1,1.72-2.28-2.17-7,6-2,4.22-7.16,3,3.73,1.3,4.93.71-1.63,3.54,0-.93,8.35,1.88,7.43,4.78,5.75,5.5,12.36,4.91,13.94,5.1,4.47,6.1,6.6,7.12,5.57,12.23,5.07,1.52-.19,3-.74,4.71,8,4.82-.9,8-9.52,16.83-3.45-1.32-1.45,2.27-6.75,5.11-2.12-3.26-1.56.26-.18-1.54-5,2,1.37-1.38-4.48-.18-11-1.35-11.66-1.81-14.41-11.61-5.85-.41-.5-2.94-3.35-4.1,1.87,1.25.23,4.34-.31,4.22,2.14-5.1-2.09-4.52,0-3.62,3.56-.38,5-2.41,6.72-4.18.06-1.34,2.39-.74-2.49,1.14,9.61,3,7.86,4.14,13.06,3.52-4.66.12-.88.59-3.08-2.21C717.12,570.1,718.4,569.69,719.92,569.39Z" transform="translate(-182.14 -126.94)"/><path class="cls-45" d="M789.76,520.32c-3.47,5.65-4.58,2.76-1.52,4.66-1-.94-2.15-.52-1.5,4.65,1.75,1.77,5.43-.22,3,1.47-4.75,4.27-9.18,4.42-7.92,1.86-7.35,4-7.37,7.5-5.77,4.23-2.52,3.36,3.16,5.84,4.18,17.82-1.87,2.58,1.49,2.26-1.63,3.37,6.45,6.72,8.94,9.67,5.27,13.38-3.58,7.31-1.42,5-8.24,10.6-8.84-2.89-5.27-3.93-10.19-2.71,1.07-7.94-7.23-5.3-9.51-12.68,2.93-1.86,7.16-.46,6.91-6.65-1.6-1.43-7.77-10.65-4.59-9-4.18-1.8.68-10.15.45-11.68,1,.59-3.08.85,1.78,3.88-9-4.39-7.25-1.89-10-1.24-4.28-3.89-6.88-3.83-3-4.74-2.09-.1-2.56-.79-2.63-6.69-7.53,3,.14-2.05-1.81-5.74,8.83-3,15.49-6.89,14.43-5.86,3-3.24,14.64-2.71,15.34-.68.48,2.4,5.88,0,10-.11C785.81,522.34,787,518.31,789.76,520.32Z" transform="translate(-182.14 -126.94)"/><path class="cls-46" d="M848,546c-3.55,5.85-4.8,3.12-1.47,4.81-1.77,2.91-5.05,6.34-7.56,13.54-1.7,2.42-1.48.4-7.89,1.73-7.44,3.78-23.12,6.54-24.58-5.68-9.16-1.66-10.53-5-10.43-16.07-3.36-.62.39-6.75-2-7.73a32.69,32.69,0,0,1,10.21-29.38c6.35,1.47,9.51.06,7.57.34,1.71,2.23,10.08-2.19,11.54,4.73,1-1.8,11.86.15,12.19,7.53,7.73,1.42,4.49,14,4.06,16.12,3.78,1.47,9.19,9.78,9.48,14.72C847.41,549.38,846.3,546.53,848,546ZM824,548.14c-.36,1.82-.71.72-.09,1.47,1.22-1.25,1-4.52,0-8.57-.58-3.36-1.09-7.42-2.57-9.93-1.81-1.38-3.23-3-3.29-4.14-1.76.74-2.09,3.18-2.28,5-.62,3.87.16,6.19.63,10.14C817.4,548.44,820.32,549.59,824,548.14Z" transform="translate(-182.14 -126.94)"/><path class="cls-47" d="M902.93,535.79c-3.08,6-4.65,3.3-1.31,4.89-1.77.2-4.15,1.71-4.73,7.73-.53,1.74,1.12-.9-2.79.33-8.73,6-17.32,2.27-20.07-10-3,4.12-.45,7.71,1.24,5-1.45,6.1,2.27,5.64-1.1,10.16-4.62,3.11-4.28,2-10.43,2.05,4.61,1.91,5.86.88,2,1.54-5.89,3.5-4.39-1.83-8.82,2.59-5.52-4.65.49-8-2.54-8,2.48-6.3-4.61-2.85-6.24-5.42,2.44-2.62,6.2-3.4,4.62-12.74-4.1-11.45-10.16-18.13-7.43-22.26-4-2.34,2.48-11.68,6.72-13.59,3.45-1,4.24-2.42,16.45-2.7.52-6.1,10.56-3.1,14.33,1.85,1.66.85,3.53,6,9.82,9.82,1.08,6,1.64,11-.1,10.5-6.5,7.61-1.54,6.26-9,8.58,12.68,3.65,18.72,5.82,12.54,13.11C895.56,537,901.2,535.77,902.93,535.79Zm-35.59-25.14c-.43,1.19-.77.61-.22,1-.6-.36-1.13-.46-1.18.43,0-.11-.2-.38-1.66.75-.77,1-.89,2.16.54,3.66a24.91,24.91,0,0,0,2.37,8.22,12,12,0,0,0,4.2-3.89c.65-1.52,1.34-3.52.36-5.07C872.14,514.3,870.14,512.1,867.34,510.65Z" transform="translate(-182.14 -126.94)"/><path class="cls-48" d="M933.64,493.81c-1.36,6.44-2.47,4.45.58,6.92a23.72,23.72,0,0,0-2.7,9.65c-.6,1.52-.08-1.24-3.78-.47-3.42,3.86-6.3,3.39-4.1-.41-2.22,3.31.12,7.44,1.28,6.62-1.16,4.11,2.45,1.78,2.23,4.17.06-.56,3.68-3.7,2.28-4.31,7.23,1.62,10.59,1.33,9.22,3.75-.51,5.32,2.11,2.86-.59,10.89-4.35-.61,0,1.22-3.53,7.58-.82-4-8,4.16-13.12,2.8-1.16-1.47.36,2.63-2,2-2.73-1.38-8.51-1.14-8.48-1.46-6.23-1.07-6.53-13.79-10.2-23.89-.92-6-5.52-13-2.14-19-7.33-9.09-3.59-10.41-2.43-11.55-1.93-3.37,10.16-7.94,14.18-8,2.08.61,4.76.78,6.14-3.9-.28,5.24,6.94,2.49,3.95,3.34,4.3.17,5.6-.82.43,3,0-.41,6.46,1.83,3.17,6.08-1.92,4.13-2.44,2.66-5.3,3-.33,3.24-2,1.14-3.92,2.61,4.21.76-.39,3-.69,4.73,6.15-.56,1.24-1.27,1.72,2.67-.51-2.41,5-.55,4.52,2-1-4.62,2.48-2.67,6.28-5.55C925.39,498.87,929.78,492.66,933.64,493.81Z" transform="translate(-182.14 -126.94)"/><path class="cls-12" d="M242.63,494.26c-5.7,3.25-5.41.21-3.74,3.36,1.21,2.9.29,6.32-2.62,14.29,0,4.55,2.42,6.75-3.48,9.13-9.36,3.62-17.81,2.06-21.2-.7-4.86,1.31-4.94,6.1-2.13,6.08-3.89,3.55.75,4.44-2.4,5.35s-.69,2.14-5,1.3c2.85,5.36,4,6.11-.7,5.13-5.78,1.55-1.9-.68-9.54,1.25-4.32-6.08-.07-4.21-5.23-4.31,4.25-6-4.79-6.73-3.84-12.59,4.08-5.87,7.17-5.31,9.77-10.62-.65-2,.57-19.58,2.45-16.62-3.74-1.15,4-5.38,4.67-7.94,2.17-1.83.44-5.76,5.16-2.23-1.72-9.81,2.23-6.88,3.26-6.29,5.35-3.41,8.64-2.06,16.47,1.89,7.9,4.45,13.5,10.85,17.83,14.67C233.48,497.73,241,493.85,242.63,494.26Zm-22.86,10.06a10.61,10.61,0,0,1,1.45-2.34c.93-3.24-.58-5.65-4.63-6.42-.74,1.95-.57,3-1.12,4-1.37,1.88-1.91,2.66-1.16,3.05a11.5,11.5,0,0,0-1.46,5.46,8.05,8.05,0,0,0,2.11-.78c1.46-.94,3.33-2,3.9-3.38C219.29,504.79,219.54,504.27,219.77,504.32Z" transform="translate(-182.14 -126.94)"/><path class="cls-12" d="M282.73,547c-6,3.37-5.71.38-3.64,3.49-3,1.66-7.5,3-13.22,8.11-2.66,1.28-1.49-.38-7.74-2.36-8.34-.34-23.44-5.59-18.74-17-7.22-5.93-6.77-9.57-1.28-19.13-2.64-2.19,3.64-5.69,2-7.72a32.74,32.74,0,0,1,23.34-20.62c4.84,4.4,8.29,4.71,6.46,4,.41,2.77,9.88,3,7.78,9.76,1.72-1.09,10.28,5.93,7,12.54,6.05,5-2.91,14.38-4.33,16,2.58,3.12,3.24,13,1.07,17.47C280.51,549.67,281,546.64,282.73,547Zm-22.09-9.89c-1.2,1.41-1,.27-.8,1.24,1.68-.5,3.12-3.44,4.18-7.49,1.14-3.21,2.69-7,2.61-9.92-.9-2.09-1.36-4.17-.85-5.22-1.89-.22-3.38,1.75-4.45,3.26-2.43,3.07-2.89,5.48-4.41,9.16C254.75,534.17,256.75,536.6,260.64,537.12Z" transform="translate(-182.14 -126.94)"/><path class="cls-12" d="M333.72,552.37c-5.22,3.86-5.12.8-3.25,3.78-.49-1.81-1.61-2.57-2.94,1.71,1.35.26,6.25-1.61,4.86-1.92-6.75,9.17-12.67,11.8-13.53,11.34-7.94,1.64-11.26,4.71-12.35,1.23-8.58.32-8-3-13.51-5.64-7.82-8-6.41-20.09-5.79-30.28,4.81-.34,8.94-5.3,9-11.54-1.45-2.34,6.63-8.51,5.56-8.24.54-6.33,8.85-4.63,8.46-2.53,7.61-5,2.82-2,5.69-4.28,6.61-.25,11.79,6.92,15,9.29,1.88.52-.52,2.41,2.58,8.43-3,1.89,3.24.56,2.26,3.45.57,3-3.48,3.6-1.42,9.86-6.34-5-6.4-.5-9.89-.23-4-4.42-7.87-6.22-5.86-8.2-1.06,1.37-1.05,2,.77-2.77-8.15,2.28-2.24,2-6.83-1.38,4,1.72,4.79,1.87-2.39,1-2.37,8.13,2.65,17.69-.92,18.67-2.4,2.9.64,2.81.93,3.76-1.59,4.19-.9,2.75-2.13,3.74,5.75,2.63,2.81-.12,5.6-2.31,10.88-1,9.05-6.37,8.55-2.79,1.71-2.9,6.5,1.51,4.32,3.5C329,547.92,332.88,548.63,333.72,552.37Z" transform="translate(-182.14 -126.94)"/><path class="cls-12" d="M349.19,517.58c-5.5,3.7-5.53.62-3.44,3.56,2.28-3.81,4.27-5.45,6.65-1,4.45.34,11.76-1.06,11.53-.53-4.2,3.44-5.72,4.24-.05,5.65-5.18,3.42-5.3,9.87-3.38,11.5-3.21,4,2.35,4.24.68,5.48-2.11-.33,2.18-1.54.37-4,5,3.74,8.22,2.65,6,.16-3.42-.82,2.58-7.28-1.66-8.6-1.17-7.34,7.86-6.9,8.13-5.61,5.51-4.81-1.15-1.6,1-4.22,5.26-.87,9.35,4.76,10.61,4.94,1.28-.84-2.18.32.59,5.92-3.93.9,2.78-1.7,2.39-.1,1.33,2.63-2.19,3.31,1.87,9.63-6.14.53-4.2,9.5-5.92,13.69-1.7,3.83-5.55,12.66-5,23.5-2.4,4.25-5.09,6.93-7.62,3.35-11.82,3.34-6.72,2.75-12.86-1.63,2.87-.06,4.09-3.47-3.94-7.26.67-3.38,8.79-1,5.55-2.27-1.54-.65,2.42-3.7,3.05-5-1.41,1.36-2.11-2-6.13-1.94,3.73,2-3.79.42-6.1.87,6.79,1.58,1-1.7-.85,3.11.83-2,5.54,3.91,2.21,8-.75-1.79-1,3.11,1.42,3.07-7.11,1.3-.06,1.41-8.53.78-.59-.9,2.94,3.27.26-1.26-9-1.54-4.11-2.3-8.25-5.8.56.66-3,.54-3.79-3.35,3.43-6.32-2-10.29-.38-12.29,4-4.57,6-11,8.11-16.67C343.64,528.13,344.83,519.84,349.19,517.58Z" transform="translate(-182.14 -126.94)"/><path class="cls-12" d="M417.88,535c-3.16,6.39-3.36,6-2.71,11.7a22.4,22.4,0,0,0-2.12,6.89c-.61,9.89.17,16.3-3.25,23.88-4.63,7.31-8.6,8.64-9.61,6.68-3.58,1.31-4.17,4.15-3,1.3-7.53,1.05-7.83-3.4-9.38-7.08-1.29-8.65,1.15-17.68.94-26.14a32.15,32.15,0,0,0,6.53-15.94c-1.91,2.21,4-5.84,1.31-2.07,2.74-7.77,10.22-7.47,13.52-3.82,3.82-4.72.55-.58,1.38-3.05,3.15-.56,5.12,5.7,5.69,7.39C416.76,533,417,534.93,417.88,535Z" transform="translate(-182.14 -126.94)"/><path class="cls-12" d="M450.16,557.67c-3,.9-3.4.09-1.81.89.56,1.32.14,3.12-.47,6.43.83.64,3.76.82,2.62,1.33-3.86,1.71-5.56,2-2,1.91-3.19,1.07-3.16,2.51-2.53,2.21-4.72.81-5.46.6-11.7.27-2.36-.26-2.35-.7-7.72-1.77.57.79.16.61-3.11.2-3.53-.48-1.09-1.49-4-.83-2.32-1.89,1.73-1.75-.29-2.08,2.71-1.35-2.21-1.54-2.65-3.45,2.1-1,4.36-.17,4.83-.69-.4-3.41-2-5.64,2-5.63-.62-1.14,5.83-2.14,8.86-1.63,4.93.65,5.34.35,9.43,1.46-2.17-1.64,1.3-.37,2.23,0C445.08,555.71,448.13,556.59,450.16,557.67Z" transform="translate(-182.14 -126.94)"/><path class="cls-12" d="M504.08,542.66c-4.81,4.53-5.12,1.45-2.68,4.09-.67-1.16-1.93-1.07-2.65,4.1,1.2,2.16,5.26,1.2,2.44,2.18-5.68,2.88-10,1.86-8.09-.28-8.12,2-9.05,5.3-6.66,2.57-3.3,2.58,1.51,6.46-.64,18.29-2.48,2,.83,2.57-2.45,2.83,4.43,8.17,6,11.67,1.55,14.29-5.35,6.11-2.67,4.48-10.69,8.07-7.74-5.11-4-5.18-9.1-5.29,3.12-7.38-5.56-7-5.82-14.74,3.31-1,7,1.44,8.39-4.6-1.17-1.79-4.68-12.31-2.05-9.92-3.54-2.83,3.32-9.61,3.5-11.15.83.84-3.18,0,.7,4.21-7.54-6.6-6.49-3.73-9.34-3.83-3.1-4.87-5.62-5.5-1.67-5.37-2-.63-2.25-1.43-.77-7.14-8,.9.67-1.94-.23-6,9.29-.61,16.71-2.59,15.41-1.88,3.73-2.34,14.79,1.24,14.93,3.37-.17,2.45,5.64,1.57,9.6,2.52C499.75,543.56,502,540,504.08,542.66Z" transform="translate(-182.14 -126.94)"/><path class="cls-12" d="M554.53,589.56c-5,4.91-5.55,1.82-2.77,4.43a13.9,13.9,0,0,0-8,5.83c.09-.25,3.68-3.32.53-3.6-8.22,2.62-12.74.48-8.33-3.68-5.62.17-5,2.24-2.64-1.38-4,.83.49-2.83-2.34-3.47-5-.19-4.14-1.87-10.34-3.46,5.2,3.83,7.9,4,4.93,4.71-3.48,4.71,1.16,3.25-5,9.8-4.42-2.49.75,0-5.65,3.14,2.92-5.48-7.31-1.41-10.37-5.08,3.45-1.63,7,3.44,7.71,3.26-6-4.22-13.23-10.2-9.9-16.58-4.21-.14,2.37-5.94,2.08-7.32,2.15-7.47-.42-14.62,5.83-15-4.17-13,2.12-15.42,5.4-19.77,2.49-7.84,6.2-8.86,17.11-7.23,5.63,1.93,10.74,5.31,15,5.24-6.32,7.22,1.86,8.78-2.42,9.5,6.15,8.52,11.48,20.59,2.65,29.42C548.16,580.51,553.64,585.28,554.53,589.56Zm-24-19c0-2.68-.13-10.34-.53-18.57-.44-1-1.15-1.19-2,.72-.71,4.26-.83,6.83-1.4,9.53-1.27,5.73-1.78,8-1,7.78-.19,1.16.38,2.45,1.32,1.45-.12.73.94,0,1.56.38C529.14,571.67,530.22,570.54,530.56,570.53Z" transform="translate(-182.14 -126.94)"/><path class="cls-12" d="M622.75,584.52c-5.54,7.79-6.94,6.94-4.54,10.84-2.18-.58-5.17-.52-7.06,3.84,1-.37,5.79-3.48,2.29-3.23-7.59,3.25-11.19,2.16-4.3-1.06-7.66,2.08-7.93,4-6.81-1.16-5.59.38-.86-4.23-4.35-5.59-3.34-1,.87-5.55-2.77-11.24,6.77-.43,9.75-3.67,5.6-5.6-4.12,3.48,1.22,2-5.44,10.48-5.29.9,2.27,5-2.81,9.43,4.09-4.85-6.56.32-9-2.5,3.1-1.79,7.06,2.68,6.89,1.91-4.83-4.5-13.39-10.15-11.57-16.5-5.3,2,2-1.33,1.41.81,1.6,1.41-2.75,3.46,4.12,11.36-7.69-2.75-3.56,2.62-5.14,5.16-1.79-1.4-4.11,1.45.31,4.44-2.89,2.8-4.39,4.59-5,.68-12.83,4.92-6.51,2.63-15-1.66,3.77-2.93,4.69-6.76-5.79-7.25-.62-5,9.14-6.08,4.69-9.35-2.29-2.56,2.09-12.51,3.39-24.19-.68-.92.1-6.68-.68-8.64,8.62-1.41,3.9-3.93,6.25-5.06,14.11-1.71,16.65,4.46,18.25,17.17.36-5.4,7.49-5.53,5.32-7.21.24-8.9,3.49-8.8,9.23-11.64-4.52.6,6.89-2.43.69-1.84,3.22-1.31,12.77,2.41,13.35.2-5.36,2.31,4,3.38,1.35,5.48,3.17,3.76,1.13,9.91.76,13.8,3.89.43-2.36,5.87-.49,11.82,4.43,9.5,5.82,15.32,7.22,19.44C622.66,586.4,620.56,584.72,622.75,584.52Z" transform="translate(-182.14 -126.94)"/><path class="cls-12" d="M676.42,583.91c-4.41,5.42-5.32,2.41-2.28,4.71a13.88,13.88,0,0,0-7.3,6.66c.07-.26,3.31-3.7.14-3.64-7.89,3.49-12.62,1.86-8.69-2.76-5.57.78-4.7,2.77-2.77-1.09-3.86,1.26.18-2.86-2.7-3.19-5,.35-4.32-1.42-10.66-2.32,5.58,3.24,8.29,3.17,5.41,4.15-3,5.05,1.5,3.1-3.88,10.27-4.67-2,.75-.05-5.28,3.74,2.31-5.77-7.43-.61-10.86-3.93,3.26-2,7.36,2.66,8,2.41-6.47-3.55-14.26-8.72-11.64-15.41-4.2.31,1.71-6.16,1.28-7.51,1.33-7.66-2-14.48,4.17-15.54-5.56-12.46.44-15.57,3.23-20.24,1.63-8.07,5.2-9.48,16.24-9,5.81,1.31,11.25,4.11,15.45,3.59-5.51,7.85,2.8,8.52-1.38,9.7,7.05,7.8,13.66,19.23,5.83,29C669.11,575.61,675.08,579.75,676.42,583.91Zm-25.91-16.33c-.31-2.65-1.24-10.26-2.53-18.4-.55-.95-1.27-1-1.93.93-.24,4.32-.08,6.89-.36,9.63-.64,5.83-.89,8.2-.16,7.85-.06,1.17.64,2.39,1.47,1.3,0,.74.94-.08,1.59.2C649.22,568.88,650.17,567.64,650.51,567.58Z" transform="translate(-182.14 -126.94)"/><path class="cls-12" d="M719.92,569.39c-3.44,5.43-4.3,2.4-1.6,4.6.86-2.57.42-4.36.47-1.73,1.1-1.24,4.49-5.52,2.58-6-4.63,2.94-8.65,1-7.3-4.1-6.12,1.13-6.55,2.93-6.21-1.38-4.15,1.36-2.21-2.92-6-3.39-4.37-2.72-3.09-8.1-6.49-12.78,4.07-2.33,7.52-7.79,8.48-12,1.48-1.89,10.06-9.09,13.12-5.08.6-4.56,10.14-3.93,11.28.92,4.44-5.23.87,2.08,2.1,1.78,3.47-1.08,8.11,4.43,8.85,5.22-1.13-.23-5.7,2-4,5.92-3.35,1.2,1.09-4.22.82-3.38-.17,3.09-5,4.51-2,8-7-5-4.69-2.36-6.61-1.57-3.27-3.83-5.11-4.23-1.31-6-.63.86-1,1.72-2.28-2.17-7,6-2,4.22-7.16,3,3.73,1.3,4.93.71-1.63,3.54,0-.93,8.35,1.88,7.43,4.78,5.75,5.5,12.36,4.91,13.94,5.1,4.47,6.1,6.6,7.12,5.57,12.23,5.07,1.52-.19,3-.74,4.71,8,4.82-.9,8-9.52,16.83-3.45-1.32-1.45,2.27-6.75,5.11-2.12-3.26-1.56.26-.18-1.54-5,2,1.37-1.38-4.48-.18-11-1.35-11.66-1.81-14.41-11.61-5.85-.41-.5-2.94-3.35-4.1,1.87,1.25.23,4.34-.31,4.22,2.14-5.1-2.09-4.52,0-3.62,3.56-.38,5-2.41,6.72-4.18.06-1.34,2.39-.74-2.49,1.14,9.61,3,7.86,4.14,13.06,3.52-4.66.12-.88.59-3.08-2.21C717.12,570.1,718.4,569.69,719.92,569.39Z" transform="translate(-182.14 -126.94)"/><path class="cls-12" d="M789.76,520.32c-3.47,5.65-4.58,2.76-1.52,4.66-1-.94-2.15-.52-1.5,4.65,1.75,1.77,5.43-.22,3,1.47-4.75,4.27-9.18,4.42-7.92,1.86-7.35,4-7.37,7.5-5.77,4.23-2.52,3.36,3.16,5.84,4.18,17.82-1.87,2.58,1.49,2.26-1.63,3.37,6.45,6.72,8.94,9.67,5.27,13.38-3.58,7.31-1.42,5-8.24,10.6-8.84-2.89-5.27-3.93-10.19-2.71,1.07-7.94-7.23-5.3-9.51-12.68,2.93-1.86,7.16-.46,6.91-6.65-1.6-1.43-7.77-10.65-4.59-9-4.18-1.8.68-10.15.45-11.68,1,.59-3.08.85,1.78,3.88-9-4.39-7.25-1.89-10-1.24-4.28-3.89-6.88-3.83-3-4.74-2.09-.1-2.56-.79-2.63-6.69-7.53,3,.14-2.05-1.81-5.74,8.83-3,15.49-6.89,14.43-5.86,3-3.24,14.64-2.71,15.34-.68.48,2.4,5.88,0,10-.11C785.81,522.34,787,518.31,789.76,520.32Z" transform="translate(-182.14 -126.94)"/><path class="cls-12" d="M848,546c-3.55,5.85-4.8,3.12-1.47,4.81-1.77,2.91-5.05,6.34-7.56,13.54-1.7,2.42-1.48.4-7.89,1.73-7.44,3.78-23.12,6.54-24.58-5.68-9.16-1.66-10.53-5-10.43-16.07-3.36-.62.39-6.75-2-7.73a32.69,32.69,0,0,1,10.21-29.38c6.35,1.47,9.51.06,7.57.34,1.71,2.23,10.08-2.19,11.54,4.73,1-1.8,11.86.15,12.19,7.53,7.73,1.42,4.49,14,4.06,16.12,3.78,1.47,9.19,9.78,9.48,14.72C847.41,549.38,846.3,546.53,848,546ZM824,548.14c-.36,1.82-.71.72-.09,1.47,1.22-1.25,1-4.52,0-8.57-.58-3.36-1.09-7.42-2.57-9.93-1.81-1.38-3.23-3-3.29-4.14-1.76.74-2.09,3.18-2.28,5-.62,3.87.16,6.19.63,10.14C817.4,548.44,820.32,549.59,824,548.14Z" transform="translate(-182.14 -126.94)"/><path class="cls-12" d="M902.93,535.79c-3.08,6-4.65,3.3-1.31,4.89-1.77.2-4.15,1.71-4.73,7.73-.53,1.74,1.12-.9-2.79.33-8.73,6-17.32,2.27-20.07-10-3,4.12-.45,7.71,1.24,5-1.45,6.1,2.27,5.64-1.1,10.16-4.62,3.11-4.28,2-10.43,2.05,4.61,1.91,5.86.88,2,1.54-5.89,3.5-4.39-1.83-8.82,2.59-5.52-4.65.49-8-2.54-8,2.48-6.3-4.61-2.85-6.24-5.42,2.44-2.62,6.2-3.4,4.62-12.74-4.1-11.45-10.16-18.13-7.43-22.26-4-2.34,2.48-11.68,6.72-13.59,3.45-1,4.24-2.42,16.45-2.7.52-6.1,10.56-3.1,14.33,1.85,1.66.85,3.53,6,9.82,9.82,1.08,6,1.64,11-.1,10.5-6.5,7.61-1.54,6.26-9,8.58,12.68,3.65,18.72,5.82,12.54,13.11C895.56,537,901.2,535.77,902.93,535.79Zm-35.59-25.14c-.43,1.19-.77.61-.22,1-.6-.36-1.13-.46-1.18.43,0-.11-.2-.38-1.66.75-.77,1-.89,2.16.54,3.66a24.91,24.91,0,0,0,2.37,8.22,12,12,0,0,0,4.2-3.89c.65-1.52,1.34-3.52.36-5.07C872.14,514.3,870.14,512.1,867.34,510.65Z" transform="translate(-182.14 -126.94)"/><path class="cls-12" d="M933.64,493.81c-1.36,6.44-2.47,4.45.58,6.92a23.72,23.72,0,0,0-2.7,9.65c-.6,1.52-.08-1.24-3.78-.47-3.42,3.86-6.3,3.39-4.1-.41-2.22,3.31.12,7.44,1.28,6.62-1.16,4.11,2.45,1.78,2.23,4.17.06-.56,3.68-3.7,2.28-4.31,7.23,1.62,10.59,1.33,9.22,3.75-.51,5.32,2.11,2.86-.59,10.89-4.35-.61,0,1.22-3.53,7.58-.82-4-8,4.16-13.12,2.8-1.16-1.47.36,2.63-2,2-2.73-1.38-8.51-1.14-8.48-1.46-6.23-1.07-6.53-13.79-10.2-23.89-.92-6-5.52-13-2.14-19-7.33-9.09-3.59-10.41-2.43-11.55-1.93-3.37,10.16-7.94,14.18-8,2.08.61,4.76.78,6.14-3.9-.28,5.24,6.94,2.49,3.95,3.34,4.3.17,5.6-.82.43,3,0-.41,6.46,1.83,3.17,6.08-1.92,4.13-2.44,2.66-5.3,3-.33,3.24-2,1.14-3.92,2.61,4.21.76-.39,3-.69,4.73,6.15-.56,1.24-1.27,1.72,2.67-.51-2.41,5-.55,4.52,2-1-4.62,2.48-2.67,6.28-5.55C925.39,498.87,929.78,492.66,933.64,493.81Z" transform="translate(-182.14 -126.94)"/></svg>