<svg id="Capa_2" data-name="Capa 2" xmlns="http://www.w3.org/2000/svg" viewBox="0 0 635.59 755.41"><defs><style>.cls-1,.cls-7{fill:#203031;}.cls-1,.cls-2,.cls-21,.cls-27,.cls-6{opacity:0.3;}.cls-2,.cls-3{fill:#0b1f1e;}.cls-4{fill:#49af55;}.cls-4,.cls-5{stroke:#1d1d1b;}.cls-10,.cls-11,.cls-14,.cls-16,.cls-18,.cls-19,.cls-21,.cls-23,.cls-4,.cls-5,.cls-8{stroke-miterlimit:10;}.cls-10,.cls-13,.cls-18,.cls-21,.cls-5{fill:none;}.cls-12,.cls-6{fill:#1a2a2b;}.cls-8{fill:#cd6845;}.cls-10,.cls-11,.cls-19,.cls-8{stroke:#75251e;}.cls-9{fill:#ab3f27;}.cls-11,.cls-26,.cls-27{fill:#fff;}.cls-14,.cls-24{fill:#666366;}.cls-14,.cls-16,.cls-18,.cls-21{stroke:#0b1f1e;}.cls-15{fill:#622215;}.cls-16{fill:#bccdcd;}.cls-17{fill:#afbfc7;}.cls-19{fill:#c2432f;}.cls-20{fill:#75251e;}.cls-22,.cls-23{font-size:48.01px;font-family:BubbleGum;}.cls-22{fill:#c64e97;}.cls-23{fill:#1d1d1b;stroke:#e63027;}.cls-25{fill:#e16e5a;}.cls-28{fill:#e29278;}</style></defs><path class="cls-1" d="M402.63,167.57s42.46,17.91,51.9,39.64l30,16.25S507.68,226,499,252.11,480.47,295,480.47,295l-2.67,31.18-33.25,1.37Z" transform="translate(-7.08 -18.97)"/><path class="cls-2" d="M307.66,39.39l2.43-10.27h7l-2.21,9.07,28.92,10.55s6.1-.63,9,2.22l19-12.77,3.69,3.91L362.79,56.34S373.55,64.73,374.68,78l11.56,3.42v7.19l-10.12-.95s3.22,19,3.86,25.32l9.8,3.16v6.49h-8.36s2.9,13.14,3.22,20.26l7.23,2.21v6l-5.95.79s.16,4.51,0,6.76-29.52,3.36-29.52,3.36Z" transform="translate(-7.08 -18.97)"/><path class="cls-3" d="M150.92,326.17H493.39S392.67,404,150.92,326.17Z" transform="translate(-7.08 -18.97)"/><path class="cls-4" d="M150.92,326.17s220.38,45.73,342.47,0V621L322.15,679.88,150.92,621Z" transform="translate(-7.08 -18.97)"/><path class="cls-5" d="M150.92,397.46s153.56,43.06,342.47.65" transform="translate(-7.08 -18.97)"/><polyline class="cls-5" points="148.99 308.22 149.29 597.29 315.07 656.17 481.56 597.29 481.56 308.91"/><path class="cls-6" d="M214.35,327.54S198,350,208.91,365.19a19.73,19.73,0,0,0,20.67,7.46c7.91-2,17.9-8.59,22.94-28.51Z" transform="translate(-7.08 -18.97)"/><path class="cls-1" d="M438.25,340.67c-2,27-19.17,21.31-19.66,22.85s-10.84,6.89-17,6.53-14.7,6.29-14.7,6.29C378,386.8,360.66,391.26,350.7,393s-19.26-4.88-20.47-14.64c-.09-.69-.1-1.09-.1-1.09-2.16-36.72,45.53-51.91,45.53-51.91,5.79-16.46,26.67-27.22,26.67-27.22" transform="translate(-7.08 -18.97)"/><path class="cls-7" d="M437.59,200.65s41.66,13.94,40.7,24.15c0,0,11.74,4-19.19,62Z" transform="translate(-7.08 -18.97)"/><path class="cls-8" d="M209.05,324.77s-16.4,22.44-5.44,37.65a19.72,19.72,0,0,0,20.67,7.46c7.91-2,17.9-8.6,22.94-28.52Z" transform="translate(-7.08 -18.97)"/><path class="cls-9" d="M204.4,332.74s19.56,18.05,38.41,20.82L247.06,342l-38-17.22-4.4,7.46" transform="translate(-7.08 -18.97)"/><path class="cls-10" d="M209.05,324.77s-16.4,22.44-5.44,37.65a19.72,19.72,0,0,0,20.67,7.46c7.91-2,17.9-8.6,22.94-28.52Z" transform="translate(-7.08 -18.97)"/><path class="cls-8" d="M264.64,176s-53.33,18.36-58.47,98.76c0,0-1.36,6.57-2.33,10.13s-3.13,23.5,0,31.57,8.68,14.24,28.44,18.75c0,0,13.49,4.51,14.94,6.17S317.13,349,317.13,349l137.06-6.45s28.67-125.65-48.63-173.26c-17.74-10.93-38.53-16-59.44-15.45C320.21,154.57,276.22,158.43,264.64,176Z" transform="translate(-7.08 -18.97)"/><ellipse class="cls-11" cx="375.33" cy="210.71" rx="26.72" ry="28.85"/><path class="cls-9" d="M230.73,287.71s12,14.77,20.86,18,44.88-1.49,44.88-1.49v17.25h4v-4.27l3.37.48v3.79H307v-3.56l3.13-.23v4.74h4.34v-3.08l2.69-.24v3.32h3.93l.49-3,2.77,1.18v2.73h2.41l2-3,2,.35.75,3.21h3.25v-3.45h2.53v3.45h4v-4l2.77-.36v3l3.13-.12.72-4.63h1.93l1.21,3,1.68-.59v-4.75l2.41-1.07,1.69,4,1-.12v-6.29l2.65-.24,2.41,3.21.48-6.53,3.5.83.6,1.42.84-1.42,1.57-4.39,1.93,1,.6,3.38s11.69,14.24-10.24,19.58c0,0-19.06,11.29-28.3,19.44-2.68,4.16-84.59-1.88-90-8.71-5.21-6.57-12.76-14.13-5.85-22.36,0,0-18-9-19.92-19s4-16.93,8.35-16.93c0,0-1.76,1.26-.88,4.19,0,0,6.83-4,7.79-1.35C233.32,284.07,230.8,285.82,230.73,287.71Z" transform="translate(-7.08 -18.97)"/><ellipse class="cls-12" cx="375.31" cy="212.01" rx="20.24" ry="21.13"/><path class="cls-11" d="M231.52,216.69a27.65,27.65,0,0,1,3.62-9.39c4.59-7.47,15.18-20.13,31.59-13.59,20.76,8.27,4.69,47.63-22.25,46.48a14,14,0,0,1-13.53-12A37.54,37.54,0,0,1,231.52,216.69Z" transform="translate(-7.08 -18.97)"/><path class="cls-13" d="M136.14,249.08" transform="translate(-7.08 -18.97)"/><polygon class="cls-14" points="353.14 85.64 361.97 88.81 361.97 94.03 353.14 92.77 353.14 85.64"/><path class="cls-12" d="M265.43,231.29c7.29-6.55,8.81-17.54,3.06-25.43-2.51-3.44-6.15-5.92-11.4-5-14,2.37-22.64,16.14-14.45,32.76,0,0,1,2.28,5.11,3.55a15.33,15.33,0,0,0,13.62-2.52C262.63,233.67,264,232.55,265.43,231.29Z" transform="translate(-7.08 -18.97)"/><path class="cls-8" d="M398.29,295s-20.88,10.77-26.66,27.23c0,0-47.7,15.19-45.54,51.9,0,0,0,.41.1,1.09,1.21,9.76,10.65,16.39,20.48,14.65s27.32-6.22,36.2-16.69c0,0,8.55-6.64,14.7-6.29s16.5-5,17-6.52,17.66,4.15,19.65-22.85" transform="translate(-7.08 -18.97)"/><path class="cls-15" d="M264.32,271.61s-6.26,36.52,35.42,27c0,0,16.17-9.53,17.36-29.93s-37.84-23.24-37.84-23.24Z" transform="translate(-7.08 -18.97)"/><path class="cls-10" d="M357.54,154.1s-40.53.36-69.44,68.73c0,0-14,32.71,13.89,43.44a40.26,40.26,0,0,0,26.26.52c6.05-1.87,12.9-4.93,16.39-9.78" transform="translate(-7.08 -18.97)"/><path class="cls-8" d="M289.62,213.41s-6.11,24-5,36.68S264.05,284.87,253.46,261" transform="translate(-7.08 -18.97)"/><path class="cls-12" d="M287.36,224.8l-33.9-70.7a54.31,54.31,0,0,1-11-40.15c3.21-23.74-.2-38.3,44.88-67.11,0,0,50.16-29.75,68.34,22.16l12.09,86.32Z" transform="translate(-7.08 -18.97)"/><polygon class="cls-14" points="267.84 200.25 279.41 193.1 282.54 198.64 272.5 204.5 267.84 200.25"/><path class="cls-14" d="M366.49,153.8s-8.44-84-15.42-96.59-20.18-16.38-30-15.75-54.36,11.4-67.6,51,6.16,61.68,6.16,61.68l29.16,67.15Z" transform="translate(-7.08 -18.97)"/><path class="cls-16" d="M361.67,157.63,346.09,62.49s-.72-12.82-23.37-10.21c-21.85,2.52-63.72,18-64.21,73.27a26.73,26.73,0,0,0,2.29,11.14L294,211.23Z" transform="translate(-7.08 -18.97)"/><path class="cls-17" d="M295.72,61.25,268,150.44l16.61,37.23L327.21,51.93S306.37,54.29,295.72,61.25Z" transform="translate(-7.08 -18.97)"/><polygon class="cls-17" points="340.77 62.48 311.34 158.8 327.17 146.97 343.98 82.8 340.77 62.48"/><path class="cls-18" d="M361.67,157.63,346.09,62.49s-.72-12.82-23.37-10.21c-21.85,2.52-63.72,18-64.21,73.27a26.73,26.73,0,0,0,2.29,11.14L294,211.23Z" transform="translate(-7.08 -18.97)"/><path class="cls-8" d="M367.79,155.32s-50.78-.86-79.69,67.51c0,0-14,32.71,13.89,43.44a40.26,40.26,0,0,0,26.26.52c6.05-1.87,12.9-4.93,16.39-9.78" transform="translate(-7.08 -18.97)"/><path class="cls-19" d="M304.9,294.56s-1.3-14.44-16.48-15.15-37.71,19.22-39.58,34.66,9.46,22.07,18.86,23.26,32-38.7,32-38.7S303.78,298.09,304.9,294.56Z" transform="translate(-7.08 -18.97)"/><path class="cls-20" d="M395.42,290a40,40,0,0,0-3.47,2.37c-.56.42-1.11.84-1.65,1.27s-1.08.88-1.59,1.34-1,.94-1.53,1.4l-1.48,1.44a38,38,0,0,0-2.7,3.12l-.67.78-.61.83c-.4.56-.83,1.1-1.2,1.68-.72,1.17-1.45,2.33-2.09,3.56-.32.61-.71,1.19-1,1.83l-.84,1.91c-.63,1.25-1,2.6-1.57,3.91l-.09,0a38,38,0,0,1,2.77-8,36.93,36.93,0,0,1,2-3.71c.37-.6.8-1.16,1.2-1.75l.61-.86.66-.82a37.52,37.52,0,0,1,6-5.94,35.28,35.28,0,0,1,7.15-4.47Z" transform="translate(-7.08 -18.97)"/><path class="cls-20" d="M214.7,289.88a10.28,10.28,0,0,1,3,.18,14.78,14.78,0,0,1,2.89.87,11.78,11.78,0,0,1,2.65,1.55,5.32,5.32,0,0,1,1.89,2.49l-.08,0a7.84,7.84,0,0,0-2.22-1.87,19.47,19.47,0,0,0-2.63-1.3,39.06,39.06,0,0,0-5.56-1.87Z" transform="translate(-7.08 -18.97)"/><path class="cls-20" d="M219.93,298.11a25.74,25.74,0,0,1,4.84,1.7,32.78,32.78,0,0,1,4.48,2.5,22.11,22.11,0,0,1,4,3.35,17.93,17.93,0,0,1,1.61,2.07l.59,1.18a12.74,12.74,0,0,1,.37,1.26l-.1,0a11.3,11.3,0,0,0-3-4,31.4,31.4,0,0,0-4-3.08,64.28,64.28,0,0,0-8.8-4.93Z" transform="translate(-7.08 -18.97)"/><path class="cls-20" d="M225.17,308.34a27.3,27.3,0,0,0,2.65,2.06,31.66,31.66,0,0,0,2.77,1.84,50.43,50.43,0,0,0,5.83,3.15c2,1,4,1.81,6.1,2.63s4.2,1.5,6.33,2.32l0,.1c-1.1-.25-2.2-.48-3.3-.75s-2.18-.57-3.25-.93a53.08,53.08,0,0,1-6.3-2.47,43.2,43.2,0,0,1-5.84-3.41,26.89,26.89,0,0,1-5-4.48Z" transform="translate(-7.08 -18.97)"/><line class="cls-18" x1="270.45" y1="185.34" x2="282.54" y2="180.02"/><line class="cls-18" x1="257.56" y1="157.02" x2="267.61" y2="150.84"/><path class="cls-18" d="M247.28,86.72s.43,7.74,16.17,9.73" transform="translate(-7.08 -18.97)"/><path class="cls-18" d="M272.68,57A14.3,14.3,0,0,0,281,70.53" transform="translate(-7.08 -18.97)"/><path class="cls-18" d="M321.13,39.09s2.52-2,2.71,13.37" transform="translate(-7.08 -18.97)"/><line class="cls-18" x1="343.98" y1="38.24" x2="338.55" y2="41.59"/><line class="cls-18" x1="352.02" y1="74.33" x2="344.59" y2="74.94"/><line class="cls-18" x1="349.32" y1="108.1" x2="356.26" y2="106.75"/><path class="cls-14" d="M354.88,69.84s9.84.9,11.61,4.23v4L356.4,76.76Z" transform="translate(-7.08 -18.97)"/><polygon class="cls-14" points="327.17 24.28 345.53 10.15 349.6 13.32 335.1 28.3 327.17 24.28"/><path class="cls-14" d="M297,48.22V19.47h-5.17s-5.3,20.69-5.46,25.93,0,8.2,0,8.2Z" transform="translate(-7.08 -18.97)"/><polygon class="cls-14" points="257.56 53.01 243.26 31.99 238.77 36.58 251.2 62.48 257.56 53.01"/><path class="cls-14" d="M227.22,102.24s18.94,4.52,22.64,4.63l-.94,9s-17.85-4-21.7-7.92Z" transform="translate(-7.08 -18.97)"/><path class="cls-14" d="M260.16,155.34H243.82s-3.6,4.43,5,5.77A66.34,66.34,0,0,0,263,162Z" transform="translate(-7.08 -18.97)"/><path class="cls-5" d="M150.92,387.66s153.56,43.44,342.47,1" transform="translate(-7.08 -18.97)"/><polygon class="cls-14" points="266.38 167.02 254.83 171.26 257.56 175.85 269.71 174.68 266.38 167.02"/><polygon class="cls-14" points="357.56 115.62 364.38 117.45 364.38 122.83 357.94 121.24 357.56 115.62"/><path class="cls-18" d="M408.65,576.48c40-62.2,32.05-96.48,32.05-96.48" transform="translate(-7.08 -18.97)"/><path class="cls-3" d="M417.63,477.73s-1.83.85,3.47,2.27a5.33,5.33,0,0,0,4.18,5.22c4.33,1.13,13.43.42,13.43.42l2.63,3.38s6,1.54,7-.95c0,0,14.56-1.78,13.87-11.63l-44.89-.3Z" transform="translate(-7.08 -18.97)"/><path class="cls-3" d="M411.78,582.28a8,8,0,0,0-8.24-7.43l-31.94.86a2.89,2.89,0,0,0-2.84,2.28,3.19,3.19,0,0,0,1.42,3.06c3.29,2.77,39.76,35.05,39.76,35.05s3.45,1.35,3.53-2.29C413.53,611.25,412.43,592.93,411.78,582.28Zm-5.32,23.78s-25.1-21.53-27.37-23.38a2.09,2.09,0,0,1-1-2,2,2,0,0,1,2-1.52l22-.57a5.43,5.43,0,0,1,5.68,5c.45,7.11,1.2,19.32,1.16,21C408.84,607,406.46,606.06,406.46,606.06Z" transform="translate(-7.08 -18.97)"/><path class="cls-21" d="M412.51,579.3c40-62.2,32.05-96.48,32.05-96.48" transform="translate(-7.08 -18.97)"/><path class="cls-2" d="M415.64,585.09a8,8,0,0,0-8.24-7.42l-31.93.86a2.9,2.9,0,0,0-2.85,2.27,3.22,3.22,0,0,0,1.42,3.07c3.3,2.77,39.76,35,39.76,35s3.46,1.35,3.54-2.29C417.39,614.07,416.3,595.75,415.64,585.09Zm-5.32,23.79S385.22,587.35,383,585.5a2.1,2.1,0,0,1-1-2,2,2,0,0,1,1.95-1.52l22-.57a5.43,5.43,0,0,1,5.67,5c.45,7.11,1.2,19.32,1.17,21C412.7,609.77,410.32,608.88,410.32,608.88Z" transform="translate(-7.08 -18.97)"/><path class="cls-4" d="M413.47,476s27.23-22.47,48.75,0c0,0-4.82,4.75-7.87,3.17,0,0-7.87-2.06-10.76-.63s-11.57,2.05-13.65-1.11C429.94,477.47,415.16,479.21,413.47,476Z" transform="translate(-7.08 -18.97)"/><text class="cls-22" transform="translate(0.5 712.98)">Gracias por su compra!!!</text><text class="cls-23" transform="translate(0.5 707.18)">Gracias por su compra!!!</text><path class="cls-24" d="M462.13,223.42a6,6,0,0,1,8.24-7.41c3.75,1.84,7.81,4.71,8.88,8.79,2.11,8.07-.48,23.75-5.54,29.21-3.06,3.29-6.2,1.31-8.21-.78a5.74,5.74,0,0,1-1.4-5.35,39.84,39.84,0,0,0-2-24.42Z" transform="translate(-7.08 -18.97)"/><path class="cls-20" d="M216.47,350.43a4.76,4.76,0,0,0-1,2.2c-.09.4-.2.79-.26,1.21s-.16.8-.21,1.21c-.25,1.63-.46,3.28-.63,4.94-.11.83-.2,1.66-.29,2.49s-.18,1.67-.31,2.5-.25,1.67-.35,2.51-.27,1.68-.49,2.52h-.1c0-1.69.06-3.38.16-5.07s.2-3.38.39-5.06a42.26,42.26,0,0,1,.85-5,17.07,17.07,0,0,1,.75-2.43,8.09,8.09,0,0,1,.55-1.15,2.34,2.34,0,0,1,.87-1Z" transform="translate(-7.08 -18.97)"/><path class="cls-20" d="M343,360.25a7.24,7.24,0,0,0-2.3,1.12,13.6,13.6,0,0,0-2,1.58,21.33,21.33,0,0,0-1.68,1.87l-.77,1-.7,1.06c-.5.67-.87,1.45-1.33,2.17l-1.23,2.27c-.8,1.55-1.51,3.14-2.37,4.72l-.09,0,.8-2.52c.29-.83.63-1.65.94-2.47s.74-1.6,1.11-2.4.83-1.57,1.34-2.29a17.18,17.18,0,0,1,3.48-4,11.28,11.28,0,0,1,2.21-1.46,6.83,6.83,0,0,1,2.54-.74Z" transform="translate(-7.08 -18.97)"/><path class="cls-17" d="M459.1,286.77" transform="translate(-7.08 -18.97)"/><path class="cls-9" d="M458.69,286.77s-27.27-8.45-18.9,55.79l14-.72S458.54,312.88,458.69,286.77Z" transform="translate(-7.08 -18.97)"/><path class="cls-25" d="M283.12,289.93s3.07-5.78,7.44-5.54,7.5,4,7,5.54-9.15,11.71-9.15,11.71,3.37,3.72,0,8.55c0,0-5.3.87-5.3,0s-18.26,22.87-19.13,23.1-12.75-9.1-9.3-23.1S275.43,281.05,283.12,289.93Z" transform="translate(-7.08 -18.97)"/><path class="cls-20" d="M288.45,279.45c-1.15,1-2.3,2.07-3.4,3.16s-2.24,2.12-3.31,3.22c-2.15,2.19-4.31,4.37-6.28,6.72-1.06,1.12-2,2.3-3,3.47l-2.87,3.6c-1,1.19-1.87,2.43-2.78,3.68s-1.78,2.52-2.75,3.75L264,307a88.53,88.53,0,0,1,5-7.83,86.24,86.24,0,0,1,5.78-7.28,92.42,92.42,0,0,1,6.5-6.63,73.79,73.79,0,0,1,7.18-5.9Z" transform="translate(-7.08 -18.97)"/><ellipse class="cls-26" cx="390.99" cy="198.38" rx="6.21" ry="6.11"/><ellipse class="cls-27" cx="390.48" cy="198.8" rx="7.12" ry="7.01"/><ellipse class="cls-27" cx="258.54" cy="190.89" rx="7.12" ry="7.01"/><ellipse class="cls-26" cx="260.89" cy="190.89" rx="6.21" ry="6.11"/><path class="cls-18" d="M243.82,134.59s11.35-.07,15.93-2.6" transform="translate(-7.08 -18.97)"/><path class="cls-28" d="M410,197.51s12.32-7.37,24.91,16.69a19.52,19.52,0,0,1,2.29,8.46c.15,5.88-1.54,14.1-13.87,7,0,0-4.5-3.46-6.57-7.63A3.61,3.61,0,0,1,419,217a5,5,0,0,0,3.59-3.47C423.67,209.22,407.29,202.57,410,197.51Z" transform="translate(-7.08 -18.97)"/></svg>